<svg fill="#19C0F3" xmlns="http://www.w3.org/2000/svg" xmlns:xlink="http://www.w3.org/1999/xlink" viewBox="0 0 18 18" version="1.1" x="0px" y="0px"><title>Combined Shape</title><desc>Created with Sketch.</desc><g stroke="none" stroke-width="1" fill="none" fill-rule="evenodd"><g transform="translate(-16.000000, -470.000000)" fill="#19C0F3"><path d="M24,478 L21.9970301,478 C21.4530363,478 21,478.447715 21,479 C21,479.556135 21.4463856,480 21.9970301,480 L24,480 L24,482.00297 C24,482.546964 24.4477153,483 25,483 C25.5561352,483 26,482.553614 26,482.00297 L26,480 L28.0029699,480 C28.5469637,480 29,479.552285 29,479 C29,478.443865 28.5536144,478 28.0029699,478 L26,478 L26,475.99703 C26,475.453036 25.5522847,475 25,475 C24.4438648,475 24,475.446386 24,475.99703 L24,478 Z M25,488 C29.9705627,488 34,483.970563 34,479 C34,474.029437 29.9705627,470 25,470 C20.0294373,470 16,474.029437 16,479 C16,483.970563 20.0294373,488 25,488 Z"></path></g></g></svg>