<svg xmlns:x="http://ns.adobe.com/Extensibility/1.0/" xmlns:i="http://ns.adobe.com/AdobeIllustrator/10.0/" xmlns:graph="http://ns.adobe.com/Graphs/1.0/" xmlns="http://www.w3.org/2000/svg" xmlns:xlink="http://www.w3.org/1999/xlink" version="1.1" x="0px" y="0px" viewBox="0 0 64 64" enable-background="new 0 0 64 64" xml:space="preserve"><metadata><sfw xmlns="http://ns.adobe.com/SaveForWeb/1.0/"><slices></slices><sliceSourceBounds height="16384" width="16389" x="-8165" y="-8160" bottomLeftOrigin="true"></sliceSourceBounds></sfw></metadata><g><g><path d="M18,24c3.309,0,6-2.691,6-6s-2.691-6-6-6s-6,2.691-6,6S14.691,24,18,24z"></path><path d="M28,42c1.104,0,2-0.896,2-2v-6c0-3.808-1.756-7.308-4.819-9.601c-0.709-0.531-1.686-0.532-2.397,0    c-2.798,2.095-6.77,2.095-9.567,0c-0.711-0.532-1.688-0.531-2.397,0C7.756,26.692,6,30.192,6,34v6c0,1.104,0.896,2,2,2H28z"></path><path d="M46,24c3.309,0,6-2.691,6-6s-2.691-6-6-6s-6,2.691-6,6S42.691,24,46,24z"></path><path d="M53.182,24.399c-0.711-0.532-1.688-0.532-2.397,0c-2.799,2.095-6.77,2.095-9.568,0c-0.711-0.532-1.687-0.531-2.397,0    C35.757,26.692,34,30.192,34,34v6c0,1.104,0.896,2,2,2h20c1.104,0,2-0.896,2-2v-6C58,30.192,56.243,26.692,53.182,24.399z"></path><path d="M32,18c3.309,0,6-2.691,6-6s-2.691-6-6-6s-6,2.691-6,6S28.691,18,32,18z"></path><path d="M33.414,44.586c-0.781-0.781-2.048-0.781-2.828,0l-4,4c-0.781,0.781-0.781,2.047,0,2.828c0.78,0.781,2.048,0.781,2.828,0    L30,50.828V54c0,1.104,0.896,2,2,2s2-0.896,2-2v-3.172l0.586,0.586C34.977,51.805,35.488,52,36,52s1.023-0.195,1.414-0.586    c0.781-0.781,0.781-2.047,0-2.828L33.414,44.586z"></path><path d="M18,44h-6c-1.104,0-2,0.896-2,2s0.896,2,2,2h1.172l-4.586,4.586c-0.781,0.781-0.781,2.047,0,2.828    C8.976,55.805,9.488,56,10,56s1.024-0.195,1.414-0.586L16,50.828V52c0,1.104,0.896,2,2,2s2-0.896,2-2v-6    C20,44.896,19.104,44,18,44z"></path><path d="M50.828,48H52c1.104,0,2-0.896,2-2s-0.896-2-2-2h-6c-1.104,0-2,0.896-2,2v6c0,1.104,0.896,2,2,2s2-0.896,2-2v-1.172    l4.586,4.586C52.977,55.805,53.488,56,54,56s1.023-0.195,1.414-0.586c0.781-0.781,0.781-2.047,0-2.828L50.828,48z"></path></g></g></svg>