<svg xmlns="http://www.w3.org/2000/svg" xmlns:xlink="http://www.w3.org/1999/xlink" version="1.1" x="0px" y="0px" viewBox="0 0 100 100" style="enable-background:new 0 0 100 100;" xml:space="preserve"><path d="M81.753891,31.6123047c-0.1323242-0.1542969-0.34375-0.2124023-0.5366211-0.1494141  c-0.1103516,0.0366211-0.2021484,0.109375-0.2626953,0.2036133c-0.2475586,0.1010742-1.2231445,0.3901367-4.7504883,0.7104492  c-3.6295776,0.3372192-6.3016968-1.3356323-7.5806885-2.369812c2.9313965-0.3224487,6.5756836-1.8203125,7.1119385-2.0462036  c0.2373047-0.1000977,0.3598633-0.3642578,0.2827148-0.6098633l-1.7045898-5.4238281l-1-1.8330078  c-0.0878906-0.1606445-0.2558594-0.2607422-0.4389648-0.2607422c-0.1738281,0.019043-0.3554688,0.1025391-0.4418945,0.2661133  c-0.0288086,0.0541992-2.9160156,5.40625-7.6015625,5.4838867c-1.5017052,0.0248413-2.5328331,0.2168579-3.1629601,0.5856934  c-0.7016602-1.6662598-1.7233887-3.2008667-3.0401611-4.5227051C55.9545784,18.9726563,52.401844,17.5,48.6245003,17.5  c-7.8081055,0-14.1601563,6.3520508-14.1601563,14.1601563V32v2.4324951  c-0.5447998-0.4996948-1.2641602-0.8123779-2.0600586-0.8123779c-0.8105488,0-1.5810566,0.3168945-2.177248,0.9003906  c-0.5756836,0.5878906-0.8925781,1.3549805-0.8925781,2.159668v2.0898438c0,2.4482422,1.9916992,4.4399414,4.4399433,4.4399414  h0.6899414v0.9799805c0,3.3393555,1.4521484,6.5029297,3.9853516,8.6806641l1.8046875,1.5430298v2.3778687l-1.6474609,0.5087891  c-0.0001221,0.000061-0.0002441,0.0001831-0.0003662,0.0002441l-12.2130146,3.7727051  c-4.9458008,1.5649414-8.269043,6.0966797-8.269043,11.2768555V82c0,0.2763672,0.2236328,0.5,0.5,0.5h60  c0.2763672,0,0.5-0.2236328,0.5-0.5v-9.6499023c0-5.1816406-3.3271484-9.7133789-8.2827148-11.277832l-12.2095909-3.7717285  c-0.0001831-0.000061-0.0001831-0.0001831-0.0003662-0.0002441l-1.6474609-0.5087891v-2.3735352l1.8056641-1.5483398  c2.5322266-2.1767578,3.984375-5.340332,3.984375-8.6796875v-0.9799805h0.6899414  c2.4482384,0,4.4399376-1.9916992,4.4399376-4.4399414v-2.0898438c0-0.8056641-0.3168945-1.5727539-0.9003906-2.1674805  c-0.0442505-0.043335-0.0960693-0.074707-0.142334-0.1150513c4.0407715,0.3675537,10.9515381,3.020874,13.8757324,4.2927856  c0.0639648,0.027832,0.1318359,0.0415039,0.199707,0.0415039c0.090332,0,0.1801758-0.0244141,0.2592773-0.0727539  c0.1391602-0.0839844,0.2280273-0.2304688,0.2397461-0.3925781l0.4306641-6.2006836  C81.8950043,31.9091797,81.8544769,31.7290039,81.753891,31.6123047z M64.847641,26.5834961  c4.1665039-0.0693359,6.9580078-3.6381836,8.0078125-5.2490234l0.5419922,0.980957l1.5292969,4.8959961  c-1.7782593,0.710022-5.3187256,1.9124146-7.4786377,1.8610229c-0.0092163-0.0007935-0.0179443-0.0008545-0.0271606-0.0011597  c-0.4278564-0.0123901-0.8057861-0.0700684-1.0977173-0.1967773c-0.7412109-0.3208008-1.4692383-0.3388672-2.1640625-0.0512695  c-0.6209679,0.2568359-1.1133385,0.7268066-1.4877281,1.2003174c-0.0720825-0.6273804-0.1922607-1.242981-0.3455811-1.8491211  l-0.010437-0.0802002c-0.006958-0.0549927-0.024231-0.1084595-0.0491943-0.1583252  c-0.0730591-0.2689819-0.1542358-0.5345459-0.243042-0.7982178C62.2193489,26.9555054,62.8478279,26.616394,64.847641,26.5834961z   M35.464344,32.4936523l26.3100586-0.3271484v4.0136719H35.464344V32.4936523z M48.6245003,18.5  c3.5102539,0,6.8120117,1.3686523,9.2954102,3.8530273c1.3624268,1.3674927,2.3753052,2.9835815,3.0251465,4.7376099  c-0.1112061,0.5582275,0.2071533,1.0499268,0.3986816,1.2848511l0.3626709,2.791687l-26.2336426,0.326416  C35.563221,24.3145142,41.424366,18.5,48.6245003,18.5z M33.7744026,42.2099609  c-1.8969746,0-3.4399433-1.5429688-3.4399433-3.4399414v-2.0898438c0-0.5415039,0.2158203-1.0605469,0.5996094-1.4526367  c0.4003906-0.3916016,0.9223633-0.6074219,1.4702168-0.6074219c1.0460205,0,1.9031372,0.7869263,2.0335693,1.7980957  c-0.324585-0.1995239-0.7025757-0.3205566-1.1107178-0.3205566c-1.1767578,0-2.1342793,0.9575195-2.1342793,2.1342773  c0,0.2763672,0.2236328,0.5,0.5,0.5s0.5000019-0.2236328,0.5000019-0.5c0-0.6254883,0.5087891-1.1342773,1.1342773-1.1342773  s1.1342773,0.5087891,1.1342773,1.1342773c0,0.005188,0.0027466,0.0093994,0.0029297,0.0145264v0.6599121  c-0.0001831,0.005127-0.0029297,0.0093384-0.0029297,0.0145264c0,0.2167969-0.1767578,0.3935547-0.3935547,0.3935547  s-0.3930664-0.1767578-0.3930664-0.3935547c0-0.2763672-0.2236328-0.5-0.5-0.5s-0.5,0.2236328-0.5,0.5  c0,0.7685547,0.625,1.3935547,1.3930664,1.3935547c0.1386719,0,0.2699585-0.0265503,0.3964844-0.0644531v1.9599609H33.7744026z   M54.7607307,63.2202148c0.8703613-0.6079102,1.5214233-1.456543,1.8872681-2.4198608  c0.2195435-0.5779419,0.3363647-1.1972656,0.3363647-1.8306274v-1.1318359l1,0.3088989v0.822937  c0,2.0151367-0.9912109,3.9106445-2.6513672,5.0703125c-1.9750977,1.3803711-4.2983398,2.1098633-6.71875,2.1098633  c-2.4135742,0-4.7338867-0.7294922-6.7089844-2.1098633c-0.0004883,0-0.0004883,0-0.0004883,0  c-1.659668-1.159668-2.6503906-3.0551758-2.6503906-5.0703125v-0.822937l1-0.3088989v1.1318359  c0,1.6889648,0.831543,3.277832,2.2236328,4.25c1.8066406,1.2626953,3.9287109,1.9301758,6.1367188,1.9301758  c0.8302002,0,1.6479492-0.0938721,2.4411621-0.277771C52.3778572,64.5656738,53.6315804,64.0090942,54.7607307,63.2202148z   M78.1244965,72.3500977V81.5h-11.309082v-5.0546875c0-0.2763672-0.2236328-0.5-0.5-0.5s-0.5,0.2236328-0.5,0.5V81.5H31.4335804  v-5.0546875c0-0.2763672-0.2236328-0.5-0.5-0.5s-0.5,0.2236328-0.5,0.5V81.5h-11.309082v-9.1499023  c0-4.7421875,3.0424805-8.890625,7.5673828-10.3227539l11.5625019-3.5716553v0.5140381  c0,2.3417969,1.1503906,4.543457,3.078125,5.8896484h-0.0004883c2.1445313,1.4985352,4.6625977,2.2905273,7.2822266,2.2905273  c2.6264648,0,5.1479492-0.7919922,7.2915039-2.2900391c1.9277344-1.3466797,3.0786133-3.5483398,3.0786133-5.8901367v-0.5140381  l11.5595665,3.5706787C75.0781097,63.4580078,78.1244965,67.6069336,78.1244965,72.3500977z M55.9843636,57.1601563v1.8095703  c0,1.3623047-0.6713867,2.6450195-1.7963867,3.4306641c-1.6376953,1.1445313-3.5654297,1.7495117-5.5732422,1.7495117  c-2.0019531,0-3.9257813-0.6049805-5.5639648-1.75c-1.125-0.7851563-1.7963867-2.0673828-1.7963867-3.4301758v-1.8095703v-1.8914795  l0.7148438,0.6112061c0.8852539,0.7583008,1.862793,1.3461914,2.9018555,1.7456055  c1.1845703,0.4672852,2.4824219,0.7143555,3.753418,0.7143555c1.2783203,0,2.5405273-0.2402344,3.7509766-0.7133789  c1.0507813-0.4082031,2.0283203-0.9956055,2.9057617-1.7480469l0.703125-0.6029053V57.1601563z M61.7744026,44.1899414  c0,3.0478516-1.3251953,5.9350586-3.6347656,7.9199219l-1.9628296,1.6832275  c-0.0056763,0.0044556-0.0136108,0.0039063-0.019104,0.008667l-1.5283203,1.3183594  c-0.7905273,0.6777344-1.6704102,1.2070313-2.6171875,1.5742188c-2.1835938,0.8544922-4.6259766,0.8476563-6.7783203-0.0009766  c-0.9360352-0.359375-1.815918-0.8886719-2.6142578-1.5732422l-1.5400391-1.3198242  c-0.0021973-0.0018921-0.0053711-0.0015869-0.0075684-0.003418l-1.9719238-1.6860352  C36.7895393,50.125,35.464344,47.237793,35.464344,44.1899414v-1.4799805v-5.5297852h26.3100586v5.5297852V44.1899414z   M66.9042816,38.7700195c0,1.8969727-1.5429688,3.4399414-3.4399376,3.4399414h-0.6899414v-1.9602661  c0.12677,0.0380859,0.2584229,0.0647583,0.3974609,0.0647583c0.7680664,0,1.3930626-0.625,1.3930626-1.3935547  c0-0.2763672-0.2236328-0.5-0.5-0.5c-0.2763634,0-0.4999962,0.2236328-0.4999962,0.5  c0,0.2167969-0.1762695,0.3935547-0.3930664,0.3935547s-0.3935547-0.1767578-0.3935547-0.3935547  c0-0.006897-0.0036011-0.0125732-0.0039063-0.0194092v-0.6501465c0.0003052-0.0068359,0.0039063-0.0125122,0.0039063-0.0194092  c0-0.6254883,0.5087891-1.1342773,1.1342773-1.1342773c0.6254845,0,1.1342735,0.5087891,1.1342735,1.1342773  c0,0.2763672,0.2236328,0.5,0.5,0.5s0.5-0.2236328,0.5-0.5c0-1.1767578-0.9575195-2.1342773-2.1342735-2.1342773  c-0.4085693,0-0.7869873,0.1212158-1.1117554,0.321167c0.130127-1.0114136,0.9873657-1.7987061,2.0336266-1.7987061  c0.5478516,0,1.0703125,0.2158203,1.4628906,0.6000977c0.3911133,0.3994141,0.6069336,0.9179688,0.6069336,1.4599609V38.7700195z   M80.4868011,37.4956055c-2.9567871-1.2453613-13.4567871-5.4447632-16.6063194-3.7080688  c-0.4152222,0.1374512-0.7907104,0.3556519-1.1060791,0.6449585v-2.6680298  c0.2149658-0.4987793,0.8602905-1.6422119,1.767086-2.017395c0.4404297-0.1835938,0.8930664-0.168457,1.3842773,0.0454102  c0.3535767,0.1529541,0.7807617,0.2323608,1.2506104,0.2623901c0.7079468,0.7312622,3.9976196,3.7902222,9.1185303,3.3181763  c2.4277344-0.2207031,3.769043-0.4301758,4.5219727-0.6220703L80.4868011,37.4956055z"></path></svg>