<svg xmlns="http://www.w3.org/2000/svg" xmlns:xlink="http://www.w3.org/1999/xlink" version="1.1" x="0px" y="0px" viewBox="0 0 100 100" enable-background="new 0 0 100 100" xml:space="preserve"><path d="M43.8,71c1,0,2.1-0.2,3-0.5L36.5,96.4c-0.3,0.8-1.4,0.9-1.8,0.1l-4.9-8.6c-0.2-0.3-0.5-0.4-0.8-0.3l-9.2,2.9  c-0.8,0.3-1.6-0.5-1.2-1.3l9.8-24.5c1.3,0.6,2.8,1,4.3,1c0.6,0,1.2-0.1,1.8-0.2l0.2,0l0.1,0.2C36.5,68.9,40,71,43.8,71z M71.5,64.8  c-1.3,0.6-2.8,1-4.4,1c-0.6,0-1.2-0.1-1.8-0.2l-0.2,0l-0.1,0.2c-1.8,3.3-5.3,5.3-9,5.3c-1,0-2-0.2-3-0.5l10.4,26  c0.3,0.8,1.4,0.9,1.8,0.1l4.9-8.6c0.2-0.3,0.5-0.4,0.8-0.3l9.2,2.9c0.8,0.3,1.6-0.5,1.2-1.3L71.5,64.8z M80.4,30.8  c1.9,1.7,1.9,4.6,0,6.2l-1.2,1.1c-1.3,1.2-1.8,3.1-1.1,4.7l0.6,1.5c1,2.3-0.3,4.9-2.7,5.6l-1.6,0.4c-1.7,0.5-2.9,2-3,3.8l-0.1,1.6  c-0.1,2.2-2,3.9-4.1,3.9c-0.2,0-0.5,0-0.7-0.1l-1.6-0.3c-0.2,0-0.5-0.1-0.7-0.1c-1.5,0-2.9,0.8-3.6,2.1l-0.8,1.4  c-0.8,1.4-2.2,2.1-3.6,2.1c-0.8,0-1.7-0.3-2.4-0.8l-1.3-1c-0.7-0.5-1.6-0.8-2.4-0.8c-0.8,0-1.7,0.3-2.4,0.8l-1.3,0.9  c-0.7,0.5-1.6,0.8-2.4,0.8c-1.5,0-2.9-0.8-3.6-2.2l-0.8-1.4c-0.7-1.4-2.1-2.2-3.6-2.2c-0.2,0-0.5,0-0.7,0.1l-1.6,0.3  c-0.2,0-0.5,0.1-0.7,0.1c-2.2,0-4-1.7-4.1-3.9L28.5,54c-0.1-1.8-1.3-3.3-3-3.8l-1.6-0.4c-2.4-0.7-3.6-3.3-2.7-5.6l0.6-1.5  c0.7-1.6,0.3-3.5-1.1-4.7l-1.2-1.1c-1.9-1.7-1.9-4.6,0-6.2l1.2-1.1c1.3-1.2,1.8-3.1,1.1-4.7l-0.6-1.5c-1-2.3,0.3-4.9,2.7-5.6  l1.6-0.4c1.7-0.5,2.9-2,3-3.8l0.1-1.6c0.1-2.2,2-3.9,4.1-3.9c0.2,0,0.5,0,0.7,0.1l1.6,0.3c0.2,0,0.5,0.1,0.7,0.1  c1.5,0,2.9-0.8,3.6-2.1l0.8-1.4c0.8-1.4,2.2-2.1,3.6-2.1c0.8,0,1.7,0.3,2.4,0.8l1.3,1c0.7,0.5,1.6,0.8,2.4,0.8  c0.8,0,1.7-0.3,2.4-0.8l1.3-0.9c0.7-0.5,1.6-0.8,2.4-0.8c1.5,0,2.9,0.8,3.6,2.2l0.8,1.4c0.7,1.4,2.1,2.2,3.6,2.2  c0.2,0,0.5,0,0.7-0.1l1.6-0.3c0.2,0,0.5-0.1,0.7-0.1c2.2,0,4,1.7,4.1,3.9l0.1,1.6c0.1,1.8,1.3,3.3,3,3.8l1.6,0.4  c2.4,0.7,3.6,3.3,2.7,5.6L78.1,25c-0.7,1.6-0.3,3.5,1.1,4.7L80.4,30.8z M47.5,26.8c0-1,0.2-1.8,0.7-2.4c0.5-0.6,1.2-0.9,2.2-0.9  c1,0,1.8,0.4,2.4,1.1c0.5,0.6,0.8,1.5,0.9,2.6c0,0.5,0.5,0.9,1,0.9l5.1-0.1c0.6,0,1-0.5,1-1c-0.1-2.2-0.8-4.1-2.1-5.6  c-1.3-1.6-3.1-2.6-5.3-3v-3.8c0-0.5-0.4-0.9-0.9-0.9h-3.1c-0.5,0-0.9,0.4-0.9,0.9v3.7c-2.4,0.3-4.3,1.2-5.7,2.6  c-1.6,1.5-2.4,3.5-2.4,5.9c0,2.6,0.8,4.6,2.3,6c1.5,1.4,3.9,2.7,7.3,4c1.4,0.6,2.3,1.2,2.9,1.8c0.5,0.6,0.8,1.5,0.8,2.6  c0,1-0.3,1.7-0.8,2.3c-0.5,0.6-1.3,0.9-2.3,0.9c-1.2,0-2.2-0.4-3-1.2c-0.6-0.6-1-1.6-1.1-2.9c0-0.5-0.5-0.9-1-0.9l-5.1,0.1  c-0.6,0-1,0.5-1,1c0.1,2.7,1,4.8,2.6,6.2c1.7,1.6,3.9,2.5,6.5,2.8v3.5c0,0.5,0.4,0.9,0.9,0.9h3.1c0.5,0,0.9-0.4,0.9-0.9v-3.6  c2.1-0.4,3.8-1.2,5.1-2.5c1.5-1.5,2.3-3.5,2.3-5.9c0-2.6-0.8-4.6-2.3-6c-1.5-1.4-4-2.8-7.2-4.2c-1.4-0.6-2.4-1.2-2.9-1.8  C47.7,28.6,47.5,27.8,47.5,26.8z"></path></svg>