<svg xmlns="http://www.w3.org/2000/svg" xmlns:xlink="http://www.w3.org/1999/xlink" version="1.1" x="0px" y="0px" viewBox="0 0 55 55" style="enable-background:new 0 0 55 55;" xml:space="preserve"><style type="text/css">
	.st0{fill:none;stroke:#000000;stroke-width:2;stroke-linecap:round;stroke-linejoin:round;stroke-miterlimit:10;}
</style><g><g><path d="M12.8649902,47.1603088c0,1.5700073,1.2700195,2.8399658,2.8400269,2.8399658H26.414978l0.0400391-22.2799683H12.8649902    V47.1603088z"></path></g><g><path d="M28.414978,50.0002747h10.8800049c1.5700073,0,2.8400269-1.2699585,2.8400269-2.8399658V27.7203064H28.4550171    L28.414978,50.0002747z"></path></g><g><path d="M43.6350098,15.6603088H33.1452026c1.8353882-0.7572021,3.5925903-1.6070557,4.3140869-2.3285522    c1.9033203-1.9033203,1.9033203-4.9990234,0-6.9023438c-0.921875-0.921875-2.1474609-1.4296875-3.4521484-1.4296875    c-1.3037109,0-2.5292969,0.5078125-3.4511719,1.4296875c-1.0343018,1.0336914-2.2272949,4.2446899-3.0566406,6.7915649    c-0.8293457-2.546875-2.0223389-5.7578735-3.0566406-6.7915649c-0.921875-0.921875-2.1474609-1.4296875-3.4511719-1.4296875    s-2.5292969,0.5078125-3.4511719,1.4296875c-1.9033203,1.9033203-1.9033203,4.9990234,0,6.9023438    c0.7214966,0.7214966,2.4784546,1.5713501,4.3136597,2.3285522H11.3649902c-1.7399902,0-3.1599731,1.4199829-3.1599731,3.1599731    v3.7399902c0,1.7400513,1.4199829,3.1600342,3.1599731,3.1600342h15.0999756l0.0166016-8.3443604    c0.3023071,0.1018677,0.5463867,0.182373,0.7081909,0.2351074c0.1015625,0.0332031,0.2060547,0.0488281,0.3095703,0.0488281    s0.2080078-0.015625,0.3095703-0.0488281c0.1547852-0.0504761,0.3885498-0.1275635,0.6726685-0.2231445l-0.0166016,8.3323975    h15.1700439c1.7399902,0,3.1599731-1.4199829,3.1599731-3.1600342V18.820282    C46.7949829,17.0802917,45.375,15.6603088,43.6350098,15.6603088z M31.9700317,7.8434753    c0.5439453-0.5439453,1.2675781-0.84375,2.0371094-0.84375c0.7705078,0,1.4941406,0.2998047,2.0380859,0.84375    c1.1230469,1.1230469,1.1230469,2.9511719,0,4.0742188c-0.7958984,0.7958984-4.2226563,2.1748047-7.0380859,3.171875    C29.9387817,12.0846863,31.2151489,8.5993347,31.9700317,7.8434753z M18.9544067,7.8434753    c0.5439453-0.5439453,1.2675781-0.84375,2.0371094-0.84375s1.4931641,0.2998047,2.0371094,0.84375    c0.7548828,0.7548828,2.0302734,4.2402344,2.9628906,7.2460938c-2.8144531-0.9960938-6.2412109-2.3759766-7.0371094-3.171875    C17.8313599,10.7946472,17.8313599,8.9665222,18.9544067,7.8434753z"></path></g></g></svg>