<svg fill="#19C0F3" xmlns="http://www.w3.org/2000/svg" xmlns:xlink="http://www.w3.org/1999/xlink" version="1.1" x="0px" y="0px" viewBox="0 0 100 100" enable-background="new 0 0 100 100" xml:space="preserve"><path d="M43.35,53.859l2.792,2.791l15.595-15.594l-2.792-2.793L43.35,53.859z M84.194,31.682  c-1.52-8.159-7.926-14.398-15.931-15.919c-6.084-1.198-12.25-1.759-18.253-1.759c-6.165,0-12.33,0.561-18.413,1.759  c-8.166,1.521-14.33,7.84-15.852,15.839c-2.321,12.158-2.321,24.558,0,36.636c1.521,8.24,7.845,14.399,15.852,15.92  c6.083,1.278,12.248,1.839,18.413,1.839c6.164,0,12.247-0.561,18.332-1.76c8.167-1.6,14.332-7.839,15.852-15.918  C86.596,56.159,86.596,43.76,84.194,31.682z M42.442,63.799l-5.93,1.512c-0.122,0.031-0.247,0.047-0.37,0.047  c-0.381,0-0.753-0.146-1.035-0.414c-0.374-0.356-0.538-0.88-0.435-1.387l1.263-6.178c0.166-0.812,0.955-1.332,1.771-1.169  c0.812,0.166,1.335,0.958,1.169,1.771l-0.783,3.832l3.61-0.92c0.805-0.21,1.619,0.281,1.823,1.083  C43.73,62.778,43.245,63.595,42.442,63.799z M64.918,42.117L47.202,59.832c-0.293,0.293-0.677,0.439-1.061,0.439  s-0.768-0.146-1.061-0.439l-4.913-4.912c-0.281-0.281-0.439-0.663-0.439-1.061s0.158-0.779,0.439-1.061l17.716-17.717  c0.281-0.281,0.663-0.439,1.061-0.439s0.779,0.158,1.061,0.439l4.913,4.914C65.504,40.582,65.504,41.531,64.918,42.117z"></path></svg>