<svg xmlns="http://www.w3.org/2000/svg" data-name="Layer 4" viewBox="0 0 100 100" x="0px" y="0px"><defs><style>.cls-1,.cls-2{fill:none;}.cls-2{stroke:#000;stroke-linecap:round;stroke-linejoin:round;stroke-width:39px;}</style></defs><title>freshman</title><rect class="cls-1" width="100" height="100"></rect><path class="cls-2" d="M48.86,58.58" transform="translate(0)"></path><path d="M73.86,20.76A2,2,0,0,0,71.18,20L67,22.32A10,10,0,1,0,53.35,36.65l0,0c-0.21.29-.45,0.63-0.69,1A16.29,16.29,0,0,0,49,35.09a15.9,15.9,0,0,0-7.16-1.82A13.74,13.74,0,0,0,33,36.49c-1.85,1.49-3.55,4.72-4.45,8.42A19.24,19.24,0,0,0,29,56.4a11.28,11.28,0,0,0,5.18,5.89,16.57,16.57,0,0,0,8,1.77q1.08,0,2.22-.09h0.1A5.62,5.62,0,0,0,50,66.44a6.08,6.08,0,0,1,2.4,3.79c0.4,2.64-1.27,5.94-4.85,9.53a2.1,2.1,0,0,0-.33,2.53,1.43,1.43,0,0,0,1.31,1c2.68,0.12,4.84.18,6.45,0.18l1.54,0c1.7-.06,2.36-0.23,2.83-0.7A1.56,1.56,0,0,0,59.74,82c0.58-1.87,0-2.9-.65-3.44-1-.85-2.5-1-4.84-0.4,1.91-3,2.66-5.83,2.25-8.53a9.82,9.82,0,0,0-2.79-5.42,5.63,5.63,0,0,0-1.35-7.94A22,22,0,0,1,54.12,45,28.32,28.32,0,0,1,58,38.43a10.1,10.1,0,0,0,1.13.06,10,10,0,0,0,9.64-12.65l4.31-2.4A2,2,0,0,0,73.86,20.76Z" transform="translate(0)"></path></svg>