<svg xmlns="http://www.w3.org/2000/svg" xmlns:xlink="http://www.w3.org/1999/xlink" viewBox="0 0 241 307" version="1.1" baseProfile="full" x="0px" y="0px"><g transform="scale(1,-1) translate(0,-307)"><path d="M 209.432200 113.194400 L 209.489500 114.330400 L 209.657900 115.433700 L 209.931700 116.498500 L 210.305300 117.519300 L 210.773200 118.490600 L 211.329800 119.406700 L 211.969400 120.262100 L 212.686500 121.051100 L 213.475600 121.768300 L 214.330900 122.407900 L 215.247100 122.964500 L 216.218300 123.432300 L 217.239200 123.806000 L 218.304000 124.079800 L 219.407200 124.248100 L 220.543300 124.305500 L 325.404400 124.305500 L 325.404400 377.490400 L 325.352600 379.537200 L 325.199000 381.557000 L 324.946100 383.547600 L 324.596300 385.506200 L 324.152200 387.430500 L 323.616200 389.318000 L 322.990900 391.166000 L 322.278700 392.972200 L 321.482200 394.734100 L 320.603900 396.449000 L 319.646200 398.114700 L 318.611600 399.728400 L 317.502700 401.287800 L 316.321900 402.790400 L 315.071800 404.233500 L 313.754800 405.614900 L 312.373500 406.931800 L 310.930300 408.181900 L 309.427800 409.362700 L 307.868400 410.471600 L 306.254600 411.506200 L 304.589000 412.463900 L 302.874100 413.342300 L 301.112200 414.138800 L 299.306000 414.850900 L 297.457900 415.476200 L 295.570500 416.012200 L 293.646200 416.456300 L 291.687600 416.806100 L 289.697000 417.059100 L 287.677100 417.212600 L 285.630400 417.264400 L 48.107300 417.264400 L 46.060500 417.212600 L 44.040600 417.059100 L 42.050100 416.806100 L 40.091400 416.456300 L 38.167200 416.012200 L 36.279700 415.476200 L 34.431700 414.850900 L 32.625500 414.138800 L 30.863600 413.342300 L 29.148600 412.463900 L 27.483000 411.506200 L 25.869300 410.471600 L 24.309900 409.362700 L 22.807300 408.181900 L 21.364100 406.931800 L 19.982800 405.614900 L 18.665900 404.233500 L 17.415700 402.790400 L 16.235000 401.287800 L 15.126100 399.728400 L 14.091500 398.114700 L 13.133800 396.449000 L 12.255400 394.734100 L 11.458900 392.972200 L 10.746800 391.166000 L 10.121400 389.318000 L 9.585500 387.430500 L 9.141400 385.506200 L 8.791600 383.547600 L 8.538600 381.557000 L 8.385000 379.537200 L 8.333300 377.490400 L 8.333300 48.107300 L 8.385000 46.060500 L 8.538600 44.040600 L 8.791600 42.050100 L 9.141400 40.091400 L 9.585500 38.167200 L 10.121400 36.279700 L 10.746800 34.431700 L 11.458900 32.625500 L 12.255400 30.863600 L 13.133800 29.148600 L 14.091500 27.483000 L 15.126100 25.869300 L 16.235000 24.309900 L 17.415700 22.807300 L 18.665900 21.364100 L 19.982800 19.982800 L 21.364100 18.665900 L 22.807300 17.415700 L 24.309900 16.235000 L 25.869300 15.126100 L 27.483000 14.091500 L 29.148600 13.133800 L 30.863600 12.255400 L 32.625500 11.458900 L 34.431700 10.746800 L 36.279700 10.121400 L 38.167200 9.585500 L 40.091400 9.141400 L 42.050100 8.791600 L 44.040600 8.538600 L 46.060500 8.385000 L 48.107300 8.333300 L 209.432200 8.333300 Z M 112.201700 279.710500 L 110.471800 279.780300 L 108.780900 279.920000 L 107.129100 280.129500 L 105.516200 280.408800 L 103.942300 280.757900 L 102.407600 281.176900 L 100.911800 281.665600 L 99.455000 282.224200 L 98.037300 282.852700 L 96.658600 283.550900 L 95.318900 284.319000 L 94.018200 285.156900 L 92.756500 286.064700 L 91.533900 287.042300 L 90.350300 288.089600 L 89.773100 288.639500 L 89.209700 289.202700 L 88.136600 290.356600 L 87.135100 291.547000 L 86.205100 292.774000 L 85.346700 294.037800 L 84.559800 295.338200 L 83.844400 296.675100 L 83.200600 298.048700 L 82.628300 299.458800 L 82.127500 300.905800 L 81.698300 302.389200 L 81.340600 303.909300 L 81.054400 305.466000 L 80.839800 307.059400 L 80.696600 308.689300 L 80.625200 310.355900 L 80.616300 311.202900 L 80.625400 312.050200 L 80.698300 313.718100 L 80.844100 315.350800 L 81.062800 316.948300 L 81.354400 318.510500 L 81.718900 320.037400 L 82.156400 321.529000 L 82.666800 322.985500 L 83.250000 324.406700 L 83.906200 325.792600 L 84.635200 327.143200 L 85.437200 328.458600 L 86.312100 329.738700 L 87.259900 330.983700 L 88.280500 332.193300 L 89.374200 333.367700 L 89.948300 333.941600 L 90.535600 334.502300 L 91.734700 335.570200 L 92.966200 336.567000 L 94.230300 337.492500 L 95.526800 338.346900 L 96.855900 339.130000 L 98.217500 339.842000 L 99.611700 340.482700 L 101.038200 341.052300 L 102.497500 341.550700 L 103.989200 341.977800 L 105.513400 342.333800 L 107.070100 342.618600 L 108.659300 342.832200 L 110.281000 342.974600 L 111.935300 343.045800 L 112.774600 343.054700 L 113.711800 343.043400 L 115.557400 342.953800 L 117.364700 342.774400 L 119.133600 342.505400 L 120.864200 342.146700 L 122.556500 341.698300 L 124.210400 341.160200 L 125.826000 340.532400 L 127.403200 339.815000 L 128.942100 339.007900 L 130.442700 338.111000 L 131.905000 337.124600 L 133.328900 336.048500 L 134.714400 334.882700 L 136.061700 333.627200 L 137.370600 332.282000 L 138.010600 331.575800 L 129.511000 321.937000 L 129.102700 322.433000 L 128.267400 323.377700 L 127.407700 324.259400 L 126.523200 325.078200 L 125.614100 325.833800 L 124.680300 326.526700 L 123.721900 327.156500 L 122.738900 327.723300 L 121.731200 328.227200 L 120.698900 328.668100 L 119.641900 329.045900 L 118.560300 329.360800 L 117.454000 329.612800 L 116.323100 329.801700 L 115.167600 329.927700 L 113.987400 329.990700 L 113.388000 329.998500 L 112.908300 329.993600 L 111.961800 329.954200 L 111.032900 329.875500 L 110.121400 329.757400 L 109.227300 329.600000 L 108.350700 329.403100 L 107.491600 329.167000 L 106.649900 328.891300 L 105.825700 328.576500 L 105.018900 328.222300 L 104.229600 327.828700 L 103.457800 327.395700 L 102.703400 326.923300 L 101.966300 326.411600 L 101.246900 325.860500 L 100.544900 325.270100 L 100.200400 324.960100 L 99.863500 324.641800 L 99.221700 323.984600 L 98.622700 323.300000 L 98.066500 322.588100 L 97.553100 321.848700 L 97.082400 321.082000 L 96.654600 320.287900 L 96.269400 319.466400 L 95.927200 318.617500 L 95.627700 317.741300 L 95.371000 316.837700 L 95.157100 315.906600 L 94.985900 314.948200 L 94.857600 313.962500 L 94.772000 312.949300 L 94.729100 311.908800 L 94.723900 311.378200 L 94.728900 310.847500 L 94.769300 309.806000 L 94.850100 308.790800 L 94.971300 307.801900 L 95.132800 306.839400 L 95.334800 305.903200 L 95.577100 304.993400 L 95.859800 304.110000 L 96.182900 303.252900 L 96.546500 302.422100 L 96.950400 301.617800 L 97.394700 300.839800 L 97.879300 300.088200 L 98.404400 299.362800 L 98.969700 298.663900 L 99.575700 297.991300 L 99.893800 297.664900 L 100.218900 297.346800 L 100.882400 296.741000 L 101.562800 296.175500 L 102.260400 295.650500 L 102.975100 295.165800 L 103.706900 294.721500 L 104.455800 294.317500 L 105.221900 293.954100 L 106.005000 293.630900 L 106.805300 293.348300 L 107.622600 293.105900 L 108.457100 292.904000 L 109.308700 292.742300 L 110.177500 292.621200 L 111.063300 292.540500 L 111.966200 292.500000 L 112.424100 292.495000 L 113.050300 292.502800 L 114.281200 292.565100 L 115.483300 292.689700 L 116.656700 292.876600 L 117.801300 293.125800 L 118.917100 293.437300 L 120.004200 293.811000 L 121.062600 294.247100 L 122.092200 294.745500 L 123.093000 295.306100 L 124.065100 295.929100 L 125.008400 296.614300 L 125.923000 297.361900 L 126.808800 298.171700 L 127.665900 299.043900 L 128.494300 299.978300 L 128.897600 300.468900 L 137.660100 291.443400 L 137.004800 290.721100 L 135.672300 289.345100 L 134.310700 288.060900 L 132.920000 286.868400 L 131.500200 285.767600 L 130.051300 284.758500 L 128.573300 283.841200 L 127.066200 283.015600 L 125.530000 282.281700 L 123.964800 281.639500 L 122.370400 281.089200 L 120.746900 280.630600 L 119.094400 280.263600 L 117.412700 279.988400 L 115.702000 279.805000 L 113.962200 279.713200 L 113.081300 279.701800 Z M 176.246700 279.798300 L 174.582500 279.869100 L 172.951900 280.010800 L 171.354800 280.223300 L 169.791200 280.506800 L 168.261200 280.861100 L 166.764700 281.286200 L 165.301800 281.782100 L 163.872400 282.349000 L 162.476600 282.986600 L 161.114300 283.695200 L 159.785500 284.474600 L 158.490300 285.324800 L 157.228700 286.245900 L 156.000400 287.237800 L 154.806000 288.300600 L 154.221200 288.858600 L 153.649800 289.429700 L 152.561400 290.598000 L 151.545400 291.800700 L 150.602100 293.038100 L 149.731300 294.310000 L 148.933100 295.616400 L 148.207500 296.957600 L 147.554300 298.333300 L 146.973900 299.743500 L 146.465900 301.188300 L 146.030600 302.667600 L 145.667700 304.181500 L 145.377500 305.730000 L 145.159800 307.313100 L 145.014600 308.930700 L 144.942100 310.583000 L 144.933000 311.422000 L 144.942100 312.261100 L 145.014600 313.913300 L 145.159800 315.530800 L 145.377500 317.114000 L 145.667700 318.662500 L 146.030600 320.176400 L 146.465900 321.655800 L 146.973900 323.100600 L 147.554300 324.510800 L 148.207500 325.886400 L 148.933100 327.227500 L 149.731300 328.534000 L 150.602100 329.805900 L 151.545400 331.043300 L 152.561400 332.246100 L 153.649800 333.414300 L 154.221200 333.985500 L 154.806000 334.543400 L 156.000400 335.606200 L 157.228700 336.598200 L 158.490300 337.519300 L 159.785500 338.369500 L 161.114300 339.148900 L 162.476600 339.857400 L 163.872400 340.495100 L 165.301800 341.061900 L 166.764700 341.557900 L 168.261200 341.983000 L 169.791200 342.337300 L 171.354800 342.620700 L 172.951900 342.833200 L 174.582500 342.974900 L 176.246700 343.045800 L 177.091400 343.054700 L 177.936100 343.045800 L 179.600300 342.974900 L 181.230900 342.833200 L 182.828000 342.620700 L 184.391600 342.337300 L 185.921600 341.983000 L 187.418000 341.557900 L 188.881000 341.061900 L 190.310400 340.495100 L 191.706200 339.857400 L 193.068500 339.148900 L 194.397200 338.369500 L 195.692400 337.519300 L 196.954100 336.598200 L 198.182200 335.606200 L 199.376800 334.543400 L 199.961500 333.985500 L 200.533000 333.414300 L 201.621400 332.246100 L 202.637300 331.043300 L 203.580700 329.805900 L 204.451400 328.534000 L 205.249700 327.227500 L 205.975300 325.886400 L 206.628400 324.510800 L 207.208900 323.100600 L 207.716800 321.655800 L 208.152200 320.176400 L 208.515100 318.662500 L 208.805300 317.114000 L 209.023000 315.530800 L 209.168100 313.913300 L 209.240700 312.261100 L 209.249800 311.422000 L 209.240700 310.583000 L 209.168100 308.930700 L 209.023000 307.313100 L 208.805300 305.730000 L 208.515100 304.181500 L 208.152200 302.667600 L 207.716800 301.188300 L 207.208900 299.743500 L 206.628400 298.333300 L 205.975300 296.957600 L 205.249700 295.616400 L 204.451400 294.310000 L 203.580700 293.038100 L 202.637300 291.800700 L 201.621400 290.598000 L 200.533000 289.429700 L 199.961500 288.858600 L 199.376800 288.300600 L 198.182200 287.237800 L 196.954100 286.245900 L 195.692400 285.324800 L 194.397200 284.474600 L 193.068500 283.695200 L 191.706200 282.986600 L 190.310400 282.349000 L 188.881000 281.782100 L 187.418000 281.286200 L 185.921600 280.861100 L 184.391600 280.506800 L 182.828000 280.223300 L 181.230900 280.010800 L 179.600300 279.869100 L 177.936100 279.798300 L 177.091400 279.789400 Z M 55.555500 280.402800 L 55.555500 341.652700 L 69.225000 341.652700 L 69.225000 280.402800 Z M 177.612000 291.712000 L 178.551600 291.756800 L 179.472400 291.846500 L 180.374300 291.981000 L 181.257400 292.160400 L 182.121700 292.384600 L 182.967100 292.653600 L 183.793700 292.967400 L 184.601500 293.326100 L 185.390500 293.729800 L 186.160600 294.178200 L 186.911900 294.671400 L 187.644400 295.209500 L 188.358100 295.792400 L 189.052900 296.420100 L 189.728900 297.092700 L 190.059900 297.445800 L 190.383300 297.806900 L 190.999500 298.543500 L 191.574500 299.299300 L 192.108500 300.074200 L 192.601400 300.868200 L 193.053200 301.681600 L 193.463900 302.514100 L 193.833600 303.365700 L 194.162200 304.236400 L 194.449700 305.126400 L 194.696100 306.035500 L 194.901500 306.963800 L 195.065800 307.911200 L 195.189000 308.877800 L 195.271200 309.863600 L 195.312300 310.868600 L 195.317400 311.378200 L 195.312300 311.887900 L 195.271200 312.893200 L 195.189000 313.879700 L 195.065800 314.847300 L 194.901500 315.796100 L 194.696100 316.726000 L 194.449700 317.637300 L 194.162200 318.529600 L 193.833600 319.403100 L 193.463900 320.257700 L 193.053200 321.093700 L 192.601400 321.910700 L 192.108500 322.708800 L 191.574500 323.488300 L 190.999500 324.248900 L 190.383300 324.990500 L 190.059900 325.354400 L 189.728900 325.710200 L 189.052900 326.387900 L 188.358100 327.020400 L 187.644400 327.607800 L 186.911900 328.150000 L 186.160600 328.647000 L 185.390500 329.098800 L 184.601500 329.505500 L 183.793700 329.866900 L 182.967100 330.183200 L 182.121700 330.454300 L 181.257400 330.680200 L 180.374300 330.860900 L 179.472400 330.996400 L 178.551600 331.086800 L 177.612000 331.132000 L 177.135200 331.137700 L 176.658400 331.132000 L 175.718700 331.086800 L 174.798000 330.996400 L 173.896100 330.860900 L 173.013000 330.680200 L 172.148700 330.454300 L 171.303300 330.183200 L 170.476700 329.866900 L 169.668900 329.505500 L 168.879900 329.098800 L 168.109800 328.647000 L 167.358500 328.150000 L 166.626000 327.607800 L 165.912300 327.020400 L 165.217500 326.387900 L 164.541400 325.710200 L 164.210500 325.354400 L 163.887100 324.990500 L 163.270900 324.248900 L 162.695900 323.488300 L 162.161900 322.708800 L 161.669000 321.910700 L 161.217200 321.093700 L 160.806500 320.257700 L 160.436800 319.403100 L 160.108200 318.529600 L 159.820600 317.637300 L 159.574300 316.726000 L 159.368900 315.796100 L 159.204600 314.847300 L 159.081400 313.879700 L 158.999200 312.893200 L 158.958100 311.887900 L 158.953000 311.378200 L 158.958100 310.868600 L 158.999200 309.863600 L 159.081400 308.877800 L 159.204600 307.911200 L 159.368900 306.963800 L 159.574300 306.035500 L 159.820600 305.126400 L 160.108200 304.236400 L 160.436800 303.365700 L 160.806500 302.514100 L 161.217200 301.681600 L 161.669000 300.868200 L 162.161900 300.074200 L 162.695900 299.299300 L 163.270900 298.543500 L 163.887100 297.806900 L 164.210500 297.445800 L 164.541400 297.092700 L 165.217500 296.420100 L 165.912300 295.792400 L 166.626000 295.209500 L 167.358500 294.671400 L 168.109800 294.178200 L 168.879900 293.729800 L 169.668900 293.326100 L 170.476700 292.967400 L 171.303300 292.653600 L 172.148700 292.384600 L 173.013000 292.160400 L 173.896100 291.981000 L 174.798000 291.846500 L 175.718700 291.756800 L 176.658400 291.712000 L 177.135200 291.706400 Z M 55.555500 233.666700 L 55.555500 247.555600 L 152.777700 247.555600 L 152.777700 233.666700 Z M 55.555500 193.322700 L 55.555500 207.211500 L 262.768900 207.211500 L 262.768900 193.322700 Z" transform="scale(0.720000,0.720000) translate(0.000000,0.000000)" opacity="1.000000"></path><path d="M 13.966107 104.252266 L 102.736996 104.252266 L 2.854995 3.319880 L 2.854995 93.141154 C 2.854995 99.277652 7.829609 104.252266 13.966107 104.252266 Z" transform="scale(0.720000,0.720000) translate(221.999999,6.000000)" opacity="1.000000"></path></g></svg>