<svg xmlns="http://www.w3.org/2000/svg" xmlns:xlink="http://www.w3.org/1999/xlink" version="1.1" x="0px" y="0px" viewBox="0 0 161.492 162.732" enable-background="new 0 0 161.492 162.732" xml:space="preserve"><g><path d="M103.229,89.837c-3.382,0-6.274,1.234-8.674,3.707c-2.403,2.476-3.601,5.457-3.601,8.948c0,3.458,1.197,6.421,3.601,8.895   c2.399,2.475,5.292,3.709,8.674,3.709c3.383,0,6.274-1.228,8.675-3.682c2.402-2.455,3.601-5.428,3.601-8.922   c0-3.491-1.198-6.473-3.601-8.948C109.504,91.071,106.612,89.837,103.229,89.837z"></path><path d="M81.166,10.691c-39.138,0-70.865,31.728-70.865,70.866s31.727,70.865,70.865,70.865s70.867-31.727,70.867-70.865   S120.304,10.691,81.166,10.691z M40.596,120.663h-6.767V84.269h6.767V120.663z M55.981,111.333c2.401,2.51,5.238,3.763,8.512,3.763   c3.199,0,6.236-1.508,9.109-4.527h7.803c-1.347,3.238-3.566,5.847-6.657,7.829s-6.475,2.975-10.147,2.975   c-5.201,0-9.666-1.874-13.396-5.62c-3.728-3.746-5.593-8.22-5.593-13.422c0-5.13,1.846-9.539,5.538-13.232   c3.693-3.69,8.121-5.537,13.287-5.537c5.273,0,9.821,1.929,13.641,5.783c1.455,1.455,2.636,3.237,3.546,5.347h-7.64   c-1.563-1.818-3.189-3.083-4.884-3.792c-1.69-0.709-3.318-1.062-4.881-1.062c-3.203,0-5.975,1.253-8.321,3.763   c-2.345,2.51-3.519,5.457-3.519,8.839C52.38,105.858,53.58,108.823,55.981,111.333z M116.651,115.835   c-3.709,3.69-8.184,5.537-13.422,5.537c-5.274,0-9.765-1.847-13.477-5.537c-3.711-3.693-5.565-8.14-5.565-13.343   c0-5.2,1.854-9.657,5.565-13.366c3.712-3.71,8.202-5.565,13.477-5.565c5.238,0,9.713,1.847,13.422,5.537   c3.712,3.693,5.565,8.158,5.565,13.395C122.217,107.695,120.363,112.141,116.651,115.835z M82.907,20.142   c33.138,0.924,59.719,28.057,59.719,61.415c0,0.151-0.01,0.301-0.014,0.453C111.202,77.264,86.567,51.898,82.907,20.142z"></path></g></svg>