<svg xmlns:dc="http://purl.org/dc/elements/1.1/" xmlns:cc="http://creativecommons.org/ns#" xmlns:rdf="http://www.w3.org/1999/02/22-rdf-syntax-ns#" xmlns:svg="http://www.w3.org/2000/svg" xmlns="http://www.w3.org/2000/svg" xmlns:sodipodi="http://sodipodi.sourceforge.net/DTD/sodipodi-0.dtd" xmlns:inkscape="http://www.inkscape.org/namespaces/inkscape" viewBox="0 0 21.6959 21.6959" version="1.1" x="0px" y="0px"><g transform="translate(-2.38127,-272.923)"><path style="color:#000000;font-style:normal;font-variant:normal;font-weight:normal;font-stretch:normal;font-size:40px;line-height:1.25;font-family:sans-serif;font-variant-ligatures:normal;font-variant-position:normal;font-variant-caps:normal;font-variant-numeric:normal;font-variant-alternates:normal;font-feature-settings:normal;text-indent:0;text-align:start;text-decoration:none;text-decoration-line:none;text-decoration-style:solid;text-decoration-color:#000000;letter-spacing:0px;word-spacing:0px;text-transform:none;writing-mode:lr-tb;direction:ltr;text-orientation:mixed;dominant-baseline:auto;baseline-shift:baseline;text-anchor:start;white-space:normal;shape-padding:0;clip-rule:nonzero;display:inline;overflow:visible;visibility:visible;opacity:1;isolation:auto;mix-blend-mode:normal;color-interpolation:sRGB;color-interpolation-filters:linearRGB;solid-color:#000000;solid-opacity:1;vector-effect:none;fill:#000000;fill-opacity:1;fill-rule:nonzero;stroke:none;stroke-width:1.999969;stroke-linecap:round;stroke-linejoin:round;stroke-miterlimit:4;stroke-dasharray:none;stroke-dashoffset:0;stroke-opacity:1;paint-order:markers fill stroke;color-rendering:auto;image-rendering:auto;shape-rendering:auto;text-rendering:auto;enable-background:accumulate" d="M 40.9961 0 C 18.3012 0 0 18.3002 0 41 C 0 63.6998 18.3012 82 40.9961 82 C 63.6913 82 82 63.6998 82 41 C 82 18.3002 63.6913 0 40.9961 0 z M 40.9844 14.9863 A 1.0001 1.0001 0 0 1 42 15.998 L 42 20.0352 C 46.7055 20.364 49.3633 22.9902 50.6445 25.5527 C 51.9999 28.2891 52 31 52 31 A 1.0001 1.0001 0 1 1 50 31 C 50 31 49.9859 28.7094 48.8555 26.4492 C 47.8093 24.3554 45.9655 22.3414 42 22.0391 L 42 40.0371 C 46.7055 40.3621 49.3633 42.9922 50.6445 45.5547 C 51.9999 48.2911 52 51 52 51 C 52 51 52.0138 53.7071 50.6445 56.4473 C 49.3633 59.0098 46.7055 61.6247 42 61.9648 L 42 66.002 A 1.0001 1.0001 0 1 1 40 66.002 L 40 61.9648 C 35.2949 61.6398 32.6367 59.0098 31.3555 56.4473 C 30.0001 53.7071 30 51 30 51 A 1.0001 1.0001 0 1 1 32 51 C 32 51 32.0137 53.2906 33.1445 55.5508 C 34.1907 57.6446 36.036 59.6605 40 59.9629 L 40 41.9668 C 35.2949 41.638 32.6367 39.0078 31.3555 36.4453 C 30.0001 33.7089 30 31 30 31 C 30 31 29.9862 28.2891 31.3555 25.5527 C 32.6367 22.9902 35.2949 20.3753 40 20.0352 L 40 15.998 A 1.0001 1.0001 0 0 1 40.9844 14.9863 z M 40 22.043 C 36.036 22.334 34.1907 24.3554 33.1445 26.4492 C 32.0001 28.7094 32 31 32 31 C 32 31 32.0137 33.2908 33.1445 35.5547 C 34.1907 37.6448 36.036 39.6586 40 39.9609 L 40 22.043 z M 42 42.0391 L 42 59.9629 C 45.9655 59.6719 47.8093 57.6446 48.8555 55.5508 C 49.9999 53.2906 50 51 50 51 C 50 51 49.9859 48.7112 48.8555 46.4473 C 47.8093 44.3572 45.9655 42.3414 42 42.0391 z " transform="matrix(0.264584,0,0,0.264584,2.38127,272.923)"></path></g></svg>