<svg xmlns="http://www.w3.org/2000/svg" xmlns:xlink="http://www.w3.org/1999/xlink" version="1.1" x="0px" y="0px" viewBox="0 0 100 100" style="enable-background:new 0 0 100 100;" xml:space="preserve"><polygon points="38.8,73.3 30.3,79.8 28.7,87.1 39.9,78.5 "></polygon><path d="M40.5,81.3l-10.3,7.9l5.2,4.9c0.1,0.1,0.1,0.1,0.2,0.1c0.1,0,0.2,0,0.2-0.1l6-6.4c0.1-0.1,0.1-0.2,0.1-0.4  L40.5,81.3z"></path><path d="M33.3,66.3l-2.2,9.6l7-5.3l-0.9-4.2l2.9-3.6c0.1-0.1,0.1-0.3,0.1-0.4l-1.9-4.7c-0.1-0.1-0.2-0.2-0.3-0.2  h-5.6c-0.1,0-0.3,0.1-0.3,0.2l-1.8,4.7c-0.1,0.1,0,0.3,0.1,0.4L33.3,66.3z"></path><path d="M35.3,12.5C24.1,12.5,15,21.6,15,32.8S24.1,53,35.3,53s20.2-9.1,20.2-20.2S46.4,12.5,35.3,12.5z M50.6,32.8  c0,8.4-6.9,15.3-15.3,15.3S20,41.2,20,32.8c0-1.3,0.2-2.5,0.5-3.7c1.8,0.9,5.1,2.1,8.8,2.1c2.7,0,5.6-0.7,8.3-2.6  c0.3-0.2,7-5,12.4-0.2C50.3,29.8,50.6,31.2,50.6,32.8z"></path><path d="M68,78.9l0.2-5.3c0-9-7.2-16.2-16.2-16.2h-0.5l-7.9,35.1C53.1,90.6,61.6,85.7,68,78.9z M61.1,73.3h-7.5v-2.4h7.5V73.3z"></path><path d="M26.8,92.8l-8.7-35.5h-0.7c-9,0-16.2,7.2-16.2,16.2l0.2,6C8.1,86.5,17,91.2,26.8,92.8z"></path><path d="M80.1,33.3c0.7-0.1,1.3-0.4,1.7-0.8c0.6-0.5,0.9-1.4,0.9-2.4c0-0.5-1.1-1-2.6-1.2V33.3z"></path><path d="M98.5,22.6c-2.9-10.9-14-17.3-24.8-14.5S56.3,22.1,59.1,33c1.4,5.1,4.6,9.3,8.7,12l-5.3,8.2L84,47.5  C94.8,44.6,101.3,33.5,98.5,22.6z M85.3,30.2c0,1.8-0.6,3.3-1.8,4.3c-1.1,1-2.5,1.3-3.4,1.4v2.5h-2.6v-2.8c-5.1-1.1-5.1-5.6-5.1-5.7  l0-0.5l2.6,0v0.5c0,0.1,0,2.1,2.5,3v-4.4c-1.7-0.3-4.7-1.3-5.1-4.2c-0.2-1.6,0.2-3.1,1.2-4.2c0.9-1,2.3-1.8,3.9-2.1v-2.3h2.6V18  c3.7,0.6,5,4.2,5.2,6.1l0.1,0.5l-2.6,0.2l-0.1-0.5c0-0.1-0.3-3-2.6-3.7v5.6C81.9,26.5,85.3,27.4,85.3,30.2z"></path><path d="M74.9,24.1L74.9,24.1c0.1,1.1,1.5,1.6,2.6,1.9v-5.2c-0.6,0.2-1.4,0.5-2,1.2C75,22.5,74.8,23.2,74.9,24.1z"></path></svg>