<svg fill="#19C0F3" xmlns="http://www.w3.org/2000/svg" xmlns:xlink="http://www.w3.org/1999/xlink" version="1.1" x="0px" y="0px" viewBox="0 0 100 100" enable-background="new 0 0 100 100" xml:space="preserve"><path fill-rule="evenodd" clip-rule="evenodd" d="M90.735,35.343c0.003-1.401-0.156-2.777-0.597-4.105  c-1.283-3.876-3.44-7.092-7.057-9.181c-8.4-4.852-16.809-9.691-25.19-14.576c-2.278-1.329-4.706-1.996-7.315-2.066  C47.701,5.34,44.968,5.86,42.438,7.33c-8.461,4.909-16.972,9.736-25.395,14.711C12.022,25.009,9.38,29.57,9.318,35.4  c-0.103,9.745-0.024,19.489-0.032,29.235c-0.001,1.5,0.185,2.968,0.682,4.383c1.325,3.767,3.466,6.892,7.009,8.931  c8.335,4.802,16.673,9.6,24.98,14.448c2.182,1.274,4.482,2.028,6.989,2.164c3.063,0.168,5.977-0.329,8.675-1.896  c8.403-4.877,16.81-9.75,25.242-14.581c2.352-1.349,4.167-3.184,5.548-5.479c1.332-2.214,2.271-4.58,2.294-7.196  c0.043-5.134,0.013-10.269,0.013-15.402h0.013C90.73,45.119,90.726,40.229,90.735,35.343z M53.854,59.723l-8.627,8.626  c-1.813,1.813-4.224,2.812-6.788,2.812c-2.563,0-4.975-0.999-6.788-2.812c-3.743-3.743-3.743-9.833,0-13.576l8.627-8.626  c0.586-0.586,1.535-0.586,2.121,0s0.586,1.536,0,2.121l-8.627,8.626c-2.573,2.574-2.573,6.761,0,9.334  c1.247,1.247,2.904,1.933,4.667,1.933s3.42-0.687,4.667-1.933l8.627-8.626c0.586-0.586,1.535-0.586,2.121,0  S54.439,59.137,53.854,59.723z M58.273,39.605c0.586-0.586,1.535-0.586,2.121,0c0.586,0.585,0.586,1.536,0,2.121L41.727,60.395  c-0.293,0.293-0.677,0.439-1.061,0.439s-0.768-0.146-1.061-0.439c-0.586-0.585-0.586-1.536,0-2.121L58.273,39.605z M68.35,45.227  l-8.627,8.626c-0.293,0.293-0.677,0.439-1.061,0.439s-0.768-0.146-1.061-0.439c-0.586-0.586-0.586-1.536,0-2.121l8.627-8.626  c2.573-2.574,2.573-6.761,0-9.334c-1.247-1.247-2.904-1.933-4.667-1.933s-3.42,0.687-4.667,1.933l-8.627,8.626  c-0.586,0.586-1.535,0.586-2.121,0s-0.586-1.536,0-2.121l8.627-8.626c1.813-1.813,4.224-2.812,6.788-2.812  c2.563,0,4.975,0.999,6.788,2.812C72.093,35.394,72.093,41.484,68.35,45.227z"></path></svg>