<svg xmlns="http://www.w3.org/2000/svg" xmlns:xlink="http://www.w3.org/1999/xlink" version="1.1" x="0px" y="0px" viewBox="0 0 100 100" enable-background="new 0 0 100 100" xml:space="preserve"><g><circle cx="45.7" cy="35.9" r="8.8"></circle><circle cx="69.8" cy="20.8" r="4.3"></circle><path d="M74.8,69.6c2.4-3.7,19.1-23.1,12.8-43.4C81.3,5.9,61,1.1,52.9,2.3c-9.2,1.3-19.1,3.9-26.7,13.6c-6.2,8-8.3,13.5-8.3,23.2   c0,0,1.1,2.8,0.8,4.6c-0.3,1.8-7.3,15.1-7.3,15.1S10,61.6,12.3,62c2.3,0.5,5.8,0.4,7.1,1.1c1.7,0.8,0.8,5.7,1.2,6.3   c1.9,2.9-0.6,1.5,1.4,5.6c1.2,2.3-1,2.5-0.1,6.1c0.9,3.6,3.3,3.5,6.3,3.3c3-0.3,9.7-0.5,10.4-0.4c0.7,0.1,3.1-0.6,3.8,3.2   c0.7,3.8,2,10.7,2,10.7l34.8-8c0,0-4.4-11.1-4.9-12.7C73.8,75.5,72.4,73.3,74.8,69.6z M62.2,43.5l-4.9-0.8   c-0.5,0.8-1.1,1.6-1.7,2.3l2.1,4.5l-4.3,2.8l-3.3-3.8c-0.4,0.2-0.9,0.3-1.3,0.5c-0.5,0.1-0.9,0.1-1.4,0.2L46,54L41,53.4l-0.1-5   c-0.9-0.3-1.7-0.8-2.5-1.3L34.3,50l-3.5-3.7l3.2-3.9c-0.5-0.8-0.8-1.7-1.1-2.6l-5-0.4l-0.3-5.1l4.9-1c0.2-0.9,0.5-1.8,0.8-2.7   l-3.6-3.5l3.1-4.1l4.4,2.4c0.7-0.6,1.5-1.1,2.4-1.5l-0.5-5l5-1.1l1.8,4.7c1,0,1.9,0.1,2.8,0.4l2.9-4.1l4.5,2.3l-1.6,4.7   c0.7,0.6,1.4,1.3,2,2.1l4.8-1.3l2,4.7l-4.3,2.6c0.2,0.9,0.2,1.9,0.2,2.8l4.6,2.1L62.2,43.5z M71.9,28l-0.3,2.8l-2.8,0.1l-0.5-2.8   c-0.5-0.1-1-0.3-1.5-0.5l-2,1.9l-2.2-1.8l1.4-2.4c-0.3-0.4-0.6-0.9-0.8-1.4l-2.8,0.2l-0.6-2.8l2.6-0.9c0-0.5,0.1-1,0.2-1.6   l-2.3-1.6l1.3-2.5l2.6,1c0.4-0.4,0.8-0.7,1.2-1l-0.7-2.7l2.6-1.1l1.4,2.4c0.5-0.1,1.1-0.1,1.6-0.1l1.2-2.5l2.7,0.9l-0.5,2.8   c0.5,0.3,0.9,0.6,1.2,1l2.6-1.1l1.5,2.4L77,18.5c0.2,0.5,0.3,1,0.3,1.6l2.7,0.8l-0.4,2.8l-2.8,0c-0.1,0.2-0.2,0.5-0.3,0.7   c-0.1,0.2-0.3,0.4-0.4,0.6l1.6,2.3l-2.1,1.9l-2.1-1.8C72.9,27.7,72.4,27.9,71.9,28z"></path></g></svg>