<svg xmlns="http://www.w3.org/2000/svg" viewBox="0 0 100 100" x="0px" y="0px"><path d="M93 26.1H7c-1.1 0-2 .9-2 2v43.8c0 1.1.9 2 2 2h86c1.1 0 2-.9 2-2V28.1c0-1.1-.9-2-2-2zM50 48c4.7 0 8.3 2.9 8.3 6.5 0 2.1-1.3 4-3.3 5.2v2.8c0 1.1-.9 2-2 2s-2-.9-2-2V61h-2v1.5c0 1.1-.9 2-2 2s-2-.9-2-2v-2.8c-2-1.2-3.3-3-3.3-5.2 0-1.1.9-2 2-2s2 .9 2 2c0 1.2 1.8 2.5 4.3 2.5s4.3-1.3 4.3-2.5S52.5 52 50 52c-4.7 0-8.3-2.9-8.3-6.5 0-2.1 1.3-4 3.3-5.2v-2.8c0-1.1.9-2 2-2s2 .9 2 2V39h2v-1.5c0-1.1.9-2 2-2s2 .9 2 2v2.8c2 1.2 3.3 3 3.3 5.2 0 1.1-.9 2-2 2s-2-.9-2-2c0-1.2-1.8-2.5-4.3-2.5s-4.3 1.3-4.3 2.5S47.5 48 50 48z"></path></svg>