<svg xmlns="http://www.w3.org/2000/svg" xmlns:xlink="http://www.w3.org/1999/xlink" version="1.1" x="0px" y="0px" viewBox="0 0 100 100" enable-background="new 0 0 100 100" xml:space="preserve"><g><path d="M87,94h-3.146C80.768,74,76,56.055,54,53.582v-8.177C75,42.845,80.736,25,83.848,7H87c0.553,0,1-0.448,1-1s-0.447-1-1-1   h-2.823H16.354H13c-0.552,0-1,0.448-1,1s0.448,1,1,1h3.684C19.763,25,24,42.516,44,45.345v8.296C24,56.374,19.734,74,16.677,94H13   c-0.552,0-1,0.447-1,1s0.448,1,1,1h3.363h67.805H87c0.553,0,1-0.447,1-1S87.553,94,87,94z M81.82,7c-1.346,8-2.99,15-6,22H24.708   c-3.011-7-4.652-14-5.998-22H81.82z M45.609,56.02L46,55.422V44.985l1,0.001v23.425L18.822,92.73   C18.589,92.924,18.967,93,18.966,94H18.7C21.676,75,25.753,58.202,45.609,56.02z M80.879,94c0-1-0.623-1.076-0.855-1.27L51,68.541   V44.992l1,0.001v10.397l1.404,0.586C73.686,57.904,78.826,75,81.83,94H80.879z"></path></g></svg>