<svg xmlns="http://www.w3.org/2000/svg" xmlns:xlink="http://www.w3.org/1999/xlink" version="1.1" x="0px" y="0px" viewBox="0 0 100 100" style="enable-background:new 0 0 100 100;" xml:space="preserve"><path d="M38,25.4c-1.8,0-3.2,1.4-3.2,3.2v3.4h6.4v-3.4C41.2,26.9,39.8,25.4,38,25.4z"></path><circle cx="38" cy="44.4" r="2.4"></circle><path d="M88.7,29.5l-0.1-0.4c-0.2-0.6-0.5-1.1-0.9-1.5L63.6,3.2c-0.3-0.3-0.6-0.5-1-0.7l-1.3-0.4L23.1,2c-6.2,0-11.2,5-11.2,11.2V87  c0,6.2,5,11.2,11.2,11.2h54.5c6.2,0,11.2-5,11.2-11.2V30.5L88.7,29.5z M63.7,14.9l12.6,12.8h-9.5c-1.7,0-3.1-1.4-3.1-3.1V14.9z   M27,50.6c-1,0-1.8-0.9-1.8-2l-0.1-14.8c0-1,0.9-1.8,2-1.8h3.8v-3.4c0-3.9,3.2-7.1,7.1-7.1c3.9,0,7.1,3.2,7.1,7.1v3.4h3.8  c1.1,0,2,0.8,2,1.8l-0.1,14.8c0,1.1-0.8,2-1.8,2H27z M77.9,85.7H62.7v-3.7h15.3V85.7z M77.9,75.9H49.5v-3.7h28.4V75.9z M77.9,66.5  H49.5v-3.7h28.4V66.5z"></path></svg>