<svg xmlns="http://www.w3.org/2000/svg" xmlns:xlink="http://www.w3.org/1999/xlink" version="1.1" x="0px" y="0px" viewBox="0 0 100 100" style="enable-background:new 0 0 100 100;" xml:space="preserve"><g><path d="M81.1,6.8H18.9c-1.7,0-3,1.3-3,3v80.4c0,1.7,1.3,3,3,3h62.3c1.7,0,3-1.3,3-3V9.8C84.1,8.1,82.8,6.8,81.1,6.8z M21,31.9   h26.4v26.9H21V31.9z M21,72.6h38.5v6.8H21V72.6z M68.2,88H21v-6.8h47.2V88z M78.8,70.9H21V64h57.9V70.9z M79,58.9H52.6V31.9H79   V58.9z M79,26.8H21V12H79V26.8z"></path><rect x="23" y="14" width="53.9" height="10.8"></rect><polygon points="45.4,46.5 42.5,43.6 34.8,51.3 30.7,47.2 23,54.9 23,56.9 45.4,56.9  "></polygon><path d="M30.7,44.4l4.1,4.1l7.7-7.7l2.9,2.9v-9.8H23V52L30.7,44.4z M28.3,35.8c2,0,3.7,1.7,3.7,3.7s-1.7,3.7-3.7,3.7   s-3.7-1.7-3.7-3.7S26.3,35.8,28.3,35.8z"></path><polygon points="46.3,46 46.3,46 46.3,46  "></polygon><circle cx="28.3" cy="39.5" r="1.7"></circle><path d="M62.2,44.4l4.1,4.1l7.7-7.7l2.9,2.9v-9.8H54.6V52L62.2,44.4z M59.9,35.8c2,0,3.7,1.7,3.7,3.7s-1.7,3.7-3.7,3.7   s-3.7-1.7-3.7-3.7S57.8,35.8,59.9,35.8z"></path><polygon points="77,46.5 74.1,43.6 66.4,51.3 62.2,47.2 54.6,54.9 54.6,56.9 77,56.9  "></polygon><polygon points="77.8,46 77.8,46 77.8,46  "></polygon><circle cx="59.9" cy="39.5" r="1.7"></circle><rect x="23" y="74.6" width="34.5" height="2.8"></rect><rect x="23" y="83.2" width="43.2" height="2.8"></rect><rect x="23" y="66" width="53.9" height="2.8"></rect></g></svg>