<svg xmlns="http://www.w3.org/2000/svg" xmlns:xlink="http://www.w3.org/1999/xlink" version="1.1" x="0px" y="0px" viewBox="0 0 64 64" enable-background="new 0 0 64 64" xml:space="preserve"><g><path d="M44.92,28.943l-7.58-1.031c-0.406-0.055-0.757-0.309-0.937-0.677l-3.445-7.061c-0.456-0.934-1.793-0.913-2.22,0.034   l-3.234,7.178c-0.168,0.372-0.51,0.637-0.913,0.705l-7.553,1.282c-0.983,0.167-1.366,1.375-0.659,2.078l5.637,5.604   c0.276,0.274,0.405,0.664,0.349,1.049l-1.18,7.992c-0.15,1.013,0.936,1.752,1.824,1.242l6.594-3.788   c0.366-0.21,0.814-0.217,1.187-0.019l6.708,3.571c0.903,0.481,1.963-0.291,1.783-1.298l-1.42-7.957   c-0.068-0.383,0.049-0.775,0.316-1.057L45.646,31C46.331,30.275,45.909,29.078,44.92,28.943z"></path><path d="M62.164,28.012c0.685-0.726,0.263-1.922-0.726-2.057l-7.58-1.031c-0.406-0.055-0.757-0.309-0.937-0.677l-3.445-7.061   c-0.456-0.934-1.793-0.913-2.22,0.034l-3.234,7.178c-0.168,0.372-0.51,0.637-0.913,0.705l-4.905,0.833l6.995,0.952   c1.232,0.168,2.254,1,2.668,2.172c0.414,1.172,0.141,2.462-0.713,3.366l-5.174,5.477l1.001,5.612l5.141-2.953   c0.366-0.21,0.814-0.217,1.187-0.019l6.708,3.571c0.903,0.481,1.963-0.291,1.783-1.298l-1.42-7.957   c-0.068-0.383,0.049-0.775,0.316-1.057L62.164,28.012z"></path><path d="M22.251,38.225l-5.333-5.302c-0.881-0.876-1.195-2.155-0.819-3.339c0.376-1.184,1.37-2.049,2.594-2.256l7.106-1.206   l0.221-0.49l-5.197-0.707c-0.406-0.055-0.757-0.309-0.937-0.677l-3.445-7.061c-0.456-0.934-1.793-0.913-2.22,0.034l-3.234,7.178   c-0.168,0.372-0.51,0.637-0.913,0.705l-7.553,1.282c-0.983,0.167-1.366,1.375-0.659,2.078L7.5,34.067   c0.276,0.274,0.405,0.664,0.349,1.049l-1.18,7.992c-0.15,1.013,0.936,1.752,1.824,1.242l6.594-3.788   c0.366-0.21,0.814-0.217,1.187-0.019l5.225,2.781L22.251,38.225z"></path></g></svg>