<svg xmlns="http://www.w3.org/2000/svg" xmlns:xlink="http://www.w3.org/1999/xlink" version="1.1" x="0px" y="0px" viewBox="0 0 100 100" enable-background="new 0 0 100 100" xml:space="preserve"><path d="M93.154,22.371L77.633,6.848c-1.191-1.192-3.391-1.988-5.063-1.825L52.593,6.895c-1.569,0.147-3.592,1.099-4.703,2.212  L7.984,49.011c-3.979,3.979-3.979,10.454,0,14.433L36.561,92.02c1.921,1.922,4.483,2.979,7.215,2.979s5.295-1.058,7.216-2.979  l39.904-39.903c1.115-1.114,2.065-3.137,2.213-4.705l1.869-19.979C95.141,25.719,94.373,23.591,93.154,22.371z M73.992,33.516  h-0.008c-4.135,0-7.496-3.361-7.496-7.5c0-4.135,3.361-7.499,7.496-7.5c4.14,0.001,7.504,3.365,7.504,7.502  C81.486,30.154,78.125,33.516,73.992,33.516z"></path></svg>