<svg fill="#F31945" xmlns="http://www.w3.org/2000/svg" xmlns:xlink="http://www.w3.org/1999/xlink" version="1.1" x="0px" y="0px" viewBox="-247 370.9 100 100" enable-background="new -247 370.9 100 100" xml:space="preserve"><g><path fill="#F31945" d="M-168.9,441.2c0,14.6-11.9,26.4-26.4,26.4c-14.2,0-29.4-8.3-29.4-26.4v-2.1c0-0.2,0-0.5,0-0.7l0-1.2l-0.1,0   v-24.6c0-3,2.4-5.4,5.4-5.4s5.4,2.4,5.4,5.4v14.9l2.1,0.1v-15.1c0-2.3-1.1-4.5-2.8-5.9v-19.6c0-3,2.4-5.4,5.4-5.4s5.4,2.4,5.4,5.4   V411l2.1,0v-30.5c0-3,2.4-5.4,5.4-5.4c3,0,5.4,2.4,5.4,5.4v30.1l2.1,0v-23.5c0-3,2.4-5.4,5.4-5.4s5.4,2.4,5.4,5.4l0,29.8l0,0.9   l2.1,0.1l0-24.9c0.8-0.6,1.7-1,2.7-1c2.3,0,4.3,1.9,4.3,4.3L-168.9,441.2L-168.9,441.2z"></path></g></svg>