<svg xmlns="http://www.w3.org/2000/svg" xmlns:xlink="http://www.w3.org/1999/xlink" version="1.1" x="0px" y="0px" viewBox="0 0 100 100" enable-background="new 0 0 100 100" xml:space="preserve"><path d="M50,0C22.4,0,0,22.4,0,50s22.4,50,50,50s50-22.4,50-50S77.6,0,50,0z M77.3,37.8c-1.3,3.5-4.6,5.6-8.1,5.5l-3.3,9.2  c4.5,2.8,6.6,8.5,4.8,13.8c-2.2,6-8.8,9.2-14.9,7c-6-2.2-9.2-8.8-7-14.9c0.5-1.3,1.2-2.5,2.1-3.6l-7.7-10c-1.5,0.6-3.1,0.9-4.8,0.7  l-5.6,15.6c2,1.7,2.8,4.6,1.8,7.2c-1.2,3.4-5,5.2-8.5,4c-3.4-1.2-5.2-5-4-8.5c0.9-2.6,3.4-4.3,6-4.4l5.6-15.6  c-3.7-2.5-5.3-7.2-3.8-11.6c1.9-5.2,7.6-7.9,12.7-6c5.2,1.9,7.9,7.6,6,12.7c-0.4,1-0.9,2-1.5,2.8l7.7,10c2-0.9,4.2-1.3,6.4-1  l3.3-9.2c-2.8-2.1-4-5.9-2.8-9.4c1.5-4.3,6.3-6.6,10.6-5C76.6,28.7,78.9,33.5,77.3,37.8z"></path></svg>