<svg xmlns="http://www.w3.org/2000/svg" xmlns:xlink="http://www.w3.org/1999/xlink" version="1.1" x="0px" y="0px" viewBox="0 0 30 30" style="enable-background:new 0 0 30 30;" xml:space="preserve"><path d="M25,1H5C2.791,1,1,2.791,1,5v20c0,2.209,1.791,4,4,4h20c2.209,0,4-1.791,4-4V5C29,2.791,27.209,1,25,1z M26,17h-3.256  l-2.786,9.287C19.83,26.713,19.438,27,19.001,27c-0.026,0-0.053-0.001-0.079-0.003c-0.469-0.037-0.849-0.396-0.913-0.862  L15.764,9.672l-2.787,12.545c-0.101,0.449-0.493,0.772-0.953,0.783c-0.435,0.026-0.866-0.293-0.988-0.737L8.82,14.142l-0.892,2.229  C7.776,16.751,7.409,17,7,17H4c-0.553,0-1-0.447-1-1c0-0.552,0.447-1,1-1h2.323l1.748-4.372C8.23,10.23,8.632,9.98,9.057,10.002  c0.43,0.025,0.795,0.321,0.908,0.735l1.937,7.099l3.122-14.053c0.105-0.472,0.507-0.812,1.019-0.782  c0.483,0.02,0.884,0.384,0.949,0.864l2.376,17.43l1.675-5.582C21.169,15.29,21.559,15,22,15h4c0.553,0,1,0.448,1,1  C27,16.553,26.553,17,26,17z"></path></svg>