<svg xmlns="http://www.w3.org/2000/svg" xmlns:xlink="http://www.w3.org/1999/xlink" version="1.1" x="0px" y="0px" viewBox="0 0 100 100" style="enable-background:new 0 0 100 100;" xml:space="preserve"><g><path d="M77.9,64.4c-5.3,0-9.8-1.9-12-4.7v1.8c0,4,5.4,7.2,12,7.2c6.6,0,12-3.2,12-7.2v-1.8C87.8,62.6,83.2,64.4,77.9,64.4z"></path><path d="M77.9,52.9c-5.3,0-9.8-1.9-12-4.7V50c0,4,5.4,7.2,12,7.2c6.6,0,12-3.2,12-7.2v-1.8C87.8,51,83.2,52.9,77.9,52.9z"></path><path d="M77.9,58.7c-5.3,0-9.8-1.9-12-4.7v1.8c0,4,5.4,7.2,12,7.2c6.6,0,12-3.2,12-7.2V54C87.8,56.8,83.2,58.7,77.9,58.7z"></path><path d="M77.9,70.2c-5.3,0-9.8-1.9-12-4.7v1.8c0,4,5.4,7.2,12,7.2c6.6,0,12-3.2,12-7.2v-1.8C87.8,68.3,83.2,70.2,77.9,70.2z"></path><path d="M77.9,76c-5.3,0-9.8-1.9-12-4.7v1.8c0,4,5.4,7.2,12,7.2c6.6,0,12-3.2,12-7.2v-1.8C87.8,74.1,83.2,76,77.9,76z"></path><ellipse cx="78" cy="21.1" rx="12" ry="7.2"></ellipse><path d="M77.9,81.8c-5.3,0-9.8-1.9-12-4.7v1.8c0,4,5.4,7.2,12,7.2c6.6,0,12-3.2,12-7.2v-1.8C87.8,79.9,83.2,81.8,77.9,81.8z"></path><path d="M77.9,29.8c-5.3,0-9.8-1.9-12-4.7v1.8c0,4,5.4,7.2,12,7.2c6.6,0,12-3.2,12-7.2v-1.8C87.8,27.9,83.2,29.8,77.9,29.8z"></path><path d="M77.9,47.1c-5.3,0-9.8-1.9-12-4.7v1.8c0,4,5.4,7.2,12,7.2c6.6,0,12-3.2,12-7.2v-1.8C87.8,45.2,83.2,47.1,77.9,47.1z"></path><path d="M77.9,35.6c-5.3,0-9.8-1.9-12-4.7v1.8c0,4,5.4,7.2,12,7.2c6.6,0,12-3.2,12-7.2v-1.8C87.8,33.7,83.2,35.6,77.9,35.6z"></path><path d="M77.9,41.3c-5.3,0-9.8-1.9-12-4.7v1.8c0,4,5.4,7.2,12,7.2c6.6,0,12-3.2,12-7.2v-1.8C87.8,39.4,83.2,41.3,77.9,41.3z"></path><path d="M50,70.2c-5.3,0-9.8-1.9-12-4.7v1.8c0,4,5.4,7.2,12,7.2s12-3.2,12-7.2v-1.8C59.7,68.3,55.3,70.2,50,70.2z"></path><path d="M50,64.4c-5.3,0-9.8-1.9-12-4.7v1.8c0,4,5.4,7.2,12,7.2s12-3.2,12-7.2v-1.8C59.7,62.6,55.3,64.4,50,64.4z"></path><path d="M50,76c-5.3,0-9.8-1.9-12-4.7v1.8c0,4,5.4,7.2,12,7.2s12-3.2,12-7.2v-1.8C59.7,74.1,55.3,76,50,76z"></path><path d="M50,81.8c-5.3,0-9.8-1.9-12-4.7v1.8c0,4,5.4,7.2,12,7.2s12-3.2,12-7.2v-1.8C59.7,79.9,55.3,81.8,50,81.8z"></path><path d="M50,58.7c-5.3,0-9.8-1.9-12-4.7v1.8c0,4,5.4,7.2,12,7.2s12-3.2,12-7.2V54C59.7,56.8,55.3,58.7,50,58.7z"></path><path d="M50,52.9c-5.3,0-9.8-1.9-12-4.7V50c0,4,5.4,7.2,12,7.2S62,54,62,50v-1.8C59.7,51,55.3,52.9,50,52.9z"></path><path d="M50,37c-6.6,0-12,3.2-12,7.2v0c0,4,5.4,7.2,12,7.2s12-3.2,12-7.2v0C62,40.2,56.6,37,50,37z"></path><path d="M22,81.8c-5.3,0-9.8-1.9-12-4.7v1.8c0,4,5.4,7.2,12,7.2c6.6,0,12-3.2,12-7.2v-1.8C31.8,79.9,27.4,81.8,22,81.8z"></path><path d="M22,76c-5.3,0-9.8-1.9-12-4.7v1.8c0,4,5.4,7.2,12,7.2c6.6,0,12-3.2,12-7.2v-1.8C31.8,74.1,27.4,76,22,76z"></path><path d="M22,70.2c-5.3,0-9.8-1.9-12-4.7v1.8c0,4,5.4,7.2,12,7.2c6.6,0,12-3.2,12-7.2v-1.8C31.8,68.3,27.4,70.2,22,70.2z"></path><path d="M22,54.3c-6.6,0-12,3.2-12,7.2v0c0,4,5.4,7.2,12,7.2c6.6,0,12-3.2,12-7.2v0C34.1,57.6,28.7,54.3,22,54.3z"></path></g></svg>