<svg xmlns="http://www.w3.org/2000/svg" xmlns:xlink="http://www.w3.org/1999/xlink" viewBox="0 0 100 100" version="1.1" x="0px" y="0px"><title>magn_gls-8 copy 2</title><desc>Created with Sketch.</desc><g stroke="none" stroke-width="1" fill="none" fill-rule="evenodd"><path d="M83.2926797,5 L83.2926797,86.1443484 L74.4380982,94.99893 L68.210465,88.7723668 L61.8950885,94.9839494 L55.7370079,88.8247988 L49.4740634,94.9839494 L43.3149128,88.8247988 L37.0508982,94.9839494 L30.8553663,88.7884174 L24.6437837,95 L16,86.3540763 L16,5 L83.2926797,5 L83.2926797,5 Z M53.8943989,56.8498615 C55.0917738,55.6503466 55.7209573,53.8355586 55.0735831,52.243339 C54.2261114,50.1578309 51.6376844,49.5521882 49.622799,48.9561759 C47.3478938,48.2831207 44.9841753,47.6817582 43.0292121,46.3335077 C37.203914,42.3133672 37.6115992,32.5931232 44.3582019,29.649443 C45.0473077,29.3498318 45.7749349,29.1475942 46.5143326,28.9913683 L45.8990596,24.2307601 L53.1935227,24.2307601 L52.5686193,29.0726914 C53.7820447,29.3530419 54.9526686,29.784268 55.9906074,30.4402026 C58.1831195,31.8269745 59.370864,34.0440975 59.8919735,36.4153063 L54.0677454,37.5688095 C53.788465,36.7416685 53.3443983,35.9701697 52.6510124,35.4148189 C51.840992,34.7663746 50.7656018,34.4689034 49.7062621,34.4346622 C47.8101511,34.3725998 45.3351484,34.8658883 44.6118014,36.7748398 C44.2116064,37.8309693 44.4812565,39.0572353 45.2891367,39.8747459 C46.0146239,40.6045132 47.7726997,41.3663817 50.5665743,42.1582114 C53.3604489,42.950041 55.4266963,43.7707617 56.7663865,44.6160934 C58.1039366,45.4635651 59.1515058,46.6202784 59.9080241,48.0883734 C62.1551083,52.4498567 61.2348738,58.9310894 57.1120094,62.0331356 C55.8226111,63.0036619 54.271053,63.6135848 52.6542225,63.9356668 L53.1935227,68.1131032 L45.8990596,68.1131032 L46.4554804,63.8094021 C44.9114126,63.4241877 43.4604382,62.7586227 42.251293,61.7709758 C39.9378663,59.881285 38.7383514,57.0595893 38.1904909,54.1811816 L43.7418588,52.9270946 C44.2212367,55.9071562 46.4340796,58.2601743 49.7137524,58.2601743 C51.5627816,58.2601743 52.9570438,57.7904267 53.8943989,56.8498615 L53.8943989,56.8498615 L53.8943989,56.8498615 Z" fill="#000000"></path></g></svg>