<svg xmlns="http://www.w3.org/2000/svg" xmlns:xlink="http://www.w3.org/1999/xlink" viewBox="0 0 85 74" version="1.1" xml:space="preserve" style="" x="0px" y="0px" fill-rule="evenodd" clip-rule="evenodd" stroke-linejoin="round" stroke-miterlimit="1.41421"><g transform="matrix(1,0,0,1,-254,-146)"><g transform="matrix(1,0,0,1,246.248,133.126)"><g transform="matrix(1,0,0,1,-0.5,-5.5)"><g transform="matrix(1.08333,0,0,1.18182,-264.894,-6.36501)"><rect x="252.364" y="21.463" width="12" height="11" style="" fill="rgb(13,13,13)"></rect></g><g transform="matrix(5.375,0,0,1.18182,-1328.46,-6.36501)"><rect x="252.364" y="21.463" width="12" height="11" style="" fill="rgb(13,13,13)"></rect></g><g transform="matrix(5.375,0,0,1.18182,-1328.46,13.635)"><rect x="252.364" y="21.463" width="12" height="11" style="" fill="rgb(13,13,13)"></rect></g><g transform="matrix(5.375,0,0,1.18182,-1328.46,33.635)"><rect x="252.364" y="21.463" width="12" height="11" style="" fill="rgb(13,13,13)"></rect></g><g transform="matrix(5.375,0,0,1.18182,-1328.46,53.635)"><rect x="252.364" y="21.463" width="12" height="11" style="" fill="rgb(13,13,13)"></rect></g><g transform="matrix(1.08333,0,0,1.18182,-264.894,13.635)"><rect x="252.364" y="21.463" width="12" height="11" style="" fill="rgb(13,13,13)"></rect></g><g transform="matrix(1.08333,0,0,1.18182,-264.894,33.635)"><rect x="252.364" y="21.463" width="12" height="11" style="" fill="rgb(13,13,13)"></rect></g><g transform="matrix(1.08333,0,0,1.18182,-264.894,53.635)"><rect x="252.364" y="21.463" width="12" height="11" style="" fill="rgb(13,13,13)"></rect></g></g></g></g></svg>