<svg xmlns="http://www.w3.org/2000/svg" data-name="Layer 1" viewBox="0 0 100 100" x="0px" y="0px"><title>05</title><g data-name="Group"><path data-name="Path" d="M32.78,89.89a22.61,22.61,0,0,0,16-6.63L61,71l-5.66-5.66L43.16,77.6A14.68,14.68,0,1,1,22.4,56.84L34.62,44.62,29,39,16.74,51.19a22.67,22.67,0,0,0,16,38.7Z"></path><path data-name="Path" d="M56.84,22.4A14.68,14.68,0,0,1,77.6,43.15L65.38,55.38,71,61,83.26,48.81A22.68,22.68,0,0,0,51.19,16.74L39,29l5.66,5.66Z"></path><rect data-name="Path" x="28.47" y="46" width="43.06" height="8" transform="translate(-20.71 49.99) rotate(-45)"></rect></g></svg>