<svg xmlns="http://www.w3.org/2000/svg" xmlns:xlink="http://www.w3.org/1999/xlink" version="1.1" x="0px" y="0px" viewBox="0 0 100 100" enable-background="new 0 0 100 100" xml:space="preserve"><path d="M43.7,22.3h-0.3H5.3v0H5v34.1v4.3v4.2v4.3v4.2v4.3v0h90v0v-4.3v-4.2v-4.3v-4.2v-4.3v-4.2v-4.3v-4.2v-4.3v-4.2v-4.3v-4.2  v-4.3v0H43.7z M40.6,24.6h1.2l-1.1,0.8l0.4,1.2l-1.1-0.8l-1.1,0.9l0.5-1.3l-1.1-0.8h1.2l0.3-0.9h0.2L40.6,24.6z M41.2,51.3l-1.1-0.9  l-1.1,0.9l0.5-1.3l-1.1-0.8h1.2l0.4-1.1l0.5,1.1h1.2L40.8,50L41.2,51.3z M37.9,48.1l-1.1-0.8l-1.1,0.9l0.5-1.3l-1.1-0.8h1.3l0.4-1.1  l0.4,1.1h1.2l-1.1,0.8L37.9,48.1z M34.9,51.3l-1.1-0.9l-1.1,0.9l0.4-1.3l-1.1-0.8h1.3l0.4-1.1l0.4,1.1h1.3L34.5,50L34.9,51.3z   M31.5,48.1l-1.1-0.8l-1.1,0.9l0.5-1.3l-1.1-0.8h1.2l0.4-1.1l0.5,1.1h1.2l-1.1,0.8L31.5,48.1z M28.5,51.3l-1.1-0.9l-1.1,0.9l0.5-1.3  l-1.1-0.8h1.3l0.4-1.1l0.4,1.1h1.2l-1,0.8L28.5,51.3z M25.2,48.1l-1.1-0.8l-1.1,0.9l0.4-1.3l-1.1-0.8h1.3l0.4-1.1l0.4,1.1h1.3  l-1.1,0.8L25.2,48.1z M22.2,51.3l-1.1-0.9L20,51.3l0.5-1.3l-1.1-0.8h1.2l0.5-1.1l0.4,1.1h1.2L21.7,50L22.2,51.3z M18.9,48.1  l-1.1-0.8l-1.1,0.9l0.4-1.3l-1.1-0.8h1.3l0.4-1.1l0.4,1.1h1.3l-1.1,0.8L18.9,48.1z M15.8,51.3l-1.1-0.9l-1.1,0.9l0.5-1.3l-1.1-0.8  h1.2l0.4-1.1l0.5,1.1h1.2L15.4,50L15.8,51.3z M12.5,48.1l-1.1-0.8l-1.1,0.9l0.5-1.3l-1.1-0.8h1.3l0.4-1.1l0.4,1.1h1.2l-1.1,0.8  L12.5,48.1z M9.5,51.3l-1.1-0.9l-1.1,0.9L7.8,50l-1.1-0.8H8L8.4,48l0.4,1.1h1.3L9.1,50L9.5,51.3z M8.5,23.7l0.3,0.9h1.3l-1.1,0.8  l0.4,1.2l-1.1-0.8l-1.1,0.9l0.4-1.3l-1.1-0.8H8l0.3-0.9H8.5z M14.8,23.7l0.4,0.9h1.2l-1.1,0.8l0.4,1.2l-1.1-0.8l-1.1,0.9l0.5-1.3  l-1.1-0.8h1.2l0.3-0.9H14.8z M21.2,23.7l0.3,0.9h1.2l-1.1,0.8l0.5,1.2l-1.1-0.8L20,26.7l0.5-1.3l-1.1-0.8h1.2l0.4-0.9H21.2z   M27.6,23.7l0.3,0.9h1.2l-1,0.8l0.4,1.2l-1.1-0.8l-1.1,0.9l0.5-1.3l-1.1-0.8h1.3l0.3-0.9H27.6z M33.9,23.7l0.3,0.9h1.3l-1.1,0.8  l0.4,1.2l-1.1-0.8l-1.1,0.9l0.4-1.3l-1.1-0.8h1.3l0.3-0.9H33.9z M37.9,42l-1.1-0.8L35.7,42l0.5-1.2L35.1,40h1.3l0.4-1.1l0.4,1.1h1.2  l-1.1,0.8L37.9,42z M34.9,45.1l-1.1-0.8l-1.1,0.8l0.4-1.2l-1.1-0.8h1.3l0.4-1.1l0.4,1.1h1.3l-1.1,0.8L34.9,45.1z M31.5,42l-1.1-0.8  L29.4,42l0.5-1.2L28.8,40h1.2l0.4-1.1l0.5,1.1h1.2l-1.1,0.8L31.5,42z M28.5,45.1l-1.1-0.8l-1.1,0.8l0.5-1.2l-1.1-0.8h1.3l0.4-1.1  l0.4,1.1h1.2l-1,0.8L28.5,45.1z M25.2,42l-1.1-0.8L23.1,42l0.4-1.2L22.4,40h1.3l0.4-1.1l0.4,1.1h1.3l-1.1,0.8L25.2,42z M22.2,45.1  l-1.1-0.8L20,45.1l0.5-1.2l-1.1-0.8h1.2l0.5-1.1l0.4,1.1h1.2l-1.1,0.8L22.2,45.1z M18.9,42l-1.1-0.8L16.8,42l0.4-1.2L16.1,40h1.3  l0.4-1.1l0.4,1.1h1.3l-1.1,0.8L18.9,42z M15.8,45.1l-1.1-0.8l-1.1,0.8l0.5-1.2l-1.1-0.8h1.2l0.4-1.1l0.5,1.1h1.2l-1.1,0.8L15.8,45.1  z M12.5,42l-1.1-0.8L10.3,42l0.5-1.2L9.8,40h1.3l0.4-1.1l0.4,1.1h1.2l-1.1,0.8L12.5,42z M9.5,45.1l-1.1-0.8l-1.1,0.8l0.4-1.2  l-1.1-0.8H8l0.4-1.1l0.4,1.1h1.3l-1.1,0.8L9.5,45.1z M34.9,32.8L33.8,32l-1.1,0.8l0.4-1.2l-1.1-0.8h1.3l0.4-1.2l0.4,1.2h1.3  l-1.1,0.8L34.9,32.8z M34.9,38.9l-1.1-0.8l-1.1,0.8l0.4-1.2l-1.1-0.8h1.3l0.4-1.2l0.4,1.2h1.3l-1.1,0.8L34.9,38.9z M31.5,35.9  l-1.1-0.8l-1.1,0.8l0.5-1.2l-1.1-0.8h1.2l0.4-1.2l0.5,1.2h1.2l-1.1,0.8L31.5,35.9z M28.5,38.9l-1.1-0.8l-1.1,0.8l0.5-1.2l-1.1-0.8  h1.3l0.4-1.2l0.4,1.2h1.2l-1,0.8L28.5,38.9z M25.2,35.9l-1.1-0.8l-1.1,0.8l0.4-1.2l-1.1-0.8h1.3l0.4-1.2l0.4,1.2h1.3l-1.1,0.8  L25.2,35.9z M22.2,38.9l-1.1-0.8L20,38.9l0.5-1.2l-1.1-0.8h1.2l0.5-1.2l0.4,1.2h1.2l-1.1,0.8L22.2,38.9z M18.9,35.9l-1.1-0.8  l-1.1,0.8l0.4-1.2l-1.1-0.8h1.3l0.4-1.2l0.4,1.2h1.3l-1.1,0.8L18.9,35.9z M15.8,38.9l-1.1-0.8l-1.1,0.8l0.5-1.2l-1.1-0.8h1.2  l0.4-1.2l0.5,1.2h1.2l-1.1,0.8L15.8,38.9z M12.5,35.9l-1.1-0.8l-1.1,0.8l0.5-1.2l-1.1-0.8h1.3l0.4-1.2l0.4,1.2h1.2l-1.1,0.8  L12.5,35.9z M31.1,28.4l0.4,1.3l-1.1-0.9l-1.1,0.9l0.5-1.3l-1.1-0.8h1.2l0.4-1.1l0.5,1.1h1.2L31.1,28.4z M29.1,30.8l-1,0.8l0.4,1.2  L27.5,32l-1.1,0.8l0.5-1.2l-1.1-0.8h1.3l0.4-1.2l0.4,1.2H29.1z M24.8,28.4l0.4,1.3l-1.1-0.9l-1.1,0.9l0.4-1.3l-1.1-0.8h1.3l0.4-1.1  l0.4,1.1h1.3L24.8,28.4z M22.8,30.8l-1.1,0.8l0.5,1.2L21.2,32L20,32.8l0.5-1.2l-1.1-0.8h1.2l0.5-1.2l0.4,1.2H22.8z M18.5,28.4  l0.4,1.3l-1.1-0.9l-1.1,0.9l0.4-1.3l-1.1-0.8h1.3l0.4-1.1l0.4,1.1h1.3L18.5,28.4z M16.5,30.8l-1.1,0.8l0.4,1.2L14.7,32l-1.1,0.8  l0.5-1.2l-1.1-0.8h1.2l0.4-1.2l0.5,1.2H16.5z M12.1,28.4l0.5,1.3l-1.1-0.9l-1.1,0.9l0.5-1.3l-1.1-0.8h1.3l0.4-1.1l0.4,1.1h1.2  L12.1,28.4z M10.1,30.8l-1.1,0.8l0.4,1.2L8.4,32l-1.1,0.8l0.4-1.2l-1.1-0.8H8l0.4-1.2l0.4,1.2H10.1z M8,36.9l0.4-1.2l0.4,1.2h1.3  l-1.1,0.8l0.4,1.2l-1.1-0.8l-1.1,0.8l0.4-1.2l-1.1-0.8H8z M37.9,35.9l-1.1-0.8l-1.1,0.8l0.5-1.2l-1.1-0.8h1.3l0.4-1.2l0.4,1.2h1.2  l-1.1,0.8L37.9,35.9z M37.9,29.8l-1.1-0.9l-1.1,0.9l0.5-1.3l-1.1-0.8h1.3l0.4-1.1l0.4,1.1h1.2l-1.1,0.8L37.9,29.8z M41.2,45.1  l-1.1-0.8l-1.1,0.8l0.5-1.2l-1.1-0.8h1.2l0.4-1.1l0.5,1.1h1.2l-1.1,0.8L41.2,45.1z M41.2,38.9l-1.1-0.8l-1.1,0.8l0.5-1.2l-1.1-0.8  h1.2l0.4-1.2l0.5,1.2h1.2l-1.1,0.8L41.2,38.9z M41.2,32.8L40.1,32l-1.1,0.8l0.5-1.2l-1.1-0.8h1.2l0.4-1.2l0.5,1.2h1.2l-1.1,0.8  L41.2,32.8z M93.6,73.4H6.4v-4.2h87.3V73.4z M93.6,64.9H6.4v-4.2h87.3V64.9z M93.6,56.4H6.4v-4.2h37h0.3h50V56.4z M93.6,47.8h-50  v-4.2h50V47.8z M93.6,39.3h-50v-4.2h50V39.3z M93.6,30.8h-50v-4.2h50V30.8z"></path></svg>